%TF.GenerationSoftware,KiCad,Pcbnew,8.0.4-8.0.4-0~ubuntu20.04.1*%
%TF.CreationDate,2024-08-22T16:05:33+09:00*%
%TF.ProjectId,pcb_blheli_s,7063625f-626c-4686-956c-695f732e6b69,rev?*%
%TF.SameCoordinates,Original*%
%TF.FileFunction,Legend,Bot*%
%TF.FilePolarity,Positive*%
%FSLAX46Y46*%
G04 Gerber Fmt 4.6, Leading zero omitted, Abs format (unit mm)*
G04 Created by KiCad (PCBNEW 8.0.4-8.0.4-0~ubuntu20.04.1) date 2024-08-22 16:05:33*
%MOMM*%
%LPD*%
G01*
G04 APERTURE LIST*
%ADD10C,0.120000*%
G04 APERTURE END LIST*
D10*
X128033332Y-98863855D02*
X128299999Y-98482902D01*
X128490475Y-98863855D02*
X128490475Y-98063855D01*
X128490475Y-98063855D02*
X128185713Y-98063855D01*
X128185713Y-98063855D02*
X128109523Y-98101950D01*
X128109523Y-98101950D02*
X128071428Y-98140045D01*
X128071428Y-98140045D02*
X128033332Y-98216236D01*
X128033332Y-98216236D02*
X128033332Y-98330521D01*
X128033332Y-98330521D02*
X128071428Y-98406712D01*
X128071428Y-98406712D02*
X128109523Y-98444807D01*
X128109523Y-98444807D02*
X128185713Y-98482902D01*
X128185713Y-98482902D02*
X128490475Y-98482902D01*
X127652380Y-98863855D02*
X127499999Y-98863855D01*
X127499999Y-98863855D02*
X127423809Y-98825760D01*
X127423809Y-98825760D02*
X127385713Y-98787664D01*
X127385713Y-98787664D02*
X127309523Y-98673379D01*
X127309523Y-98673379D02*
X127271428Y-98520998D01*
X127271428Y-98520998D02*
X127271428Y-98216236D01*
X127271428Y-98216236D02*
X127309523Y-98140045D01*
X127309523Y-98140045D02*
X127347618Y-98101950D01*
X127347618Y-98101950D02*
X127423809Y-98063855D01*
X127423809Y-98063855D02*
X127576190Y-98063855D01*
X127576190Y-98063855D02*
X127652380Y-98101950D01*
X127652380Y-98101950D02*
X127690475Y-98140045D01*
X127690475Y-98140045D02*
X127728571Y-98216236D01*
X127728571Y-98216236D02*
X127728571Y-98406712D01*
X127728571Y-98406712D02*
X127690475Y-98482902D01*
X127690475Y-98482902D02*
X127652380Y-98520998D01*
X127652380Y-98520998D02*
X127576190Y-98559093D01*
X127576190Y-98559093D02*
X127423809Y-98559093D01*
X127423809Y-98559093D02*
X127347618Y-98520998D01*
X127347618Y-98520998D02*
X127309523Y-98482902D01*
X127309523Y-98482902D02*
X127271428Y-98406712D01*
X133214285Y-105263855D02*
X133480952Y-104882902D01*
X133671428Y-105263855D02*
X133671428Y-104463855D01*
X133671428Y-104463855D02*
X133366666Y-104463855D01*
X133366666Y-104463855D02*
X133290476Y-104501950D01*
X133290476Y-104501950D02*
X133252381Y-104540045D01*
X133252381Y-104540045D02*
X133214285Y-104616236D01*
X133214285Y-104616236D02*
X133214285Y-104730521D01*
X133214285Y-104730521D02*
X133252381Y-104806712D01*
X133252381Y-104806712D02*
X133290476Y-104844807D01*
X133290476Y-104844807D02*
X133366666Y-104882902D01*
X133366666Y-104882902D02*
X133671428Y-104882902D01*
X132452381Y-105263855D02*
X132909524Y-105263855D01*
X132680952Y-105263855D02*
X132680952Y-104463855D01*
X132680952Y-104463855D02*
X132757143Y-104578140D01*
X132757143Y-104578140D02*
X132833333Y-104654331D01*
X132833333Y-104654331D02*
X132909524Y-104692426D01*
X131957142Y-104463855D02*
X131880952Y-104463855D01*
X131880952Y-104463855D02*
X131804761Y-104501950D01*
X131804761Y-104501950D02*
X131766666Y-104540045D01*
X131766666Y-104540045D02*
X131728571Y-104616236D01*
X131728571Y-104616236D02*
X131690476Y-104768617D01*
X131690476Y-104768617D02*
X131690476Y-104959093D01*
X131690476Y-104959093D02*
X131728571Y-105111474D01*
X131728571Y-105111474D02*
X131766666Y-105187664D01*
X131766666Y-105187664D02*
X131804761Y-105225760D01*
X131804761Y-105225760D02*
X131880952Y-105263855D01*
X131880952Y-105263855D02*
X131957142Y-105263855D01*
X131957142Y-105263855D02*
X132033333Y-105225760D01*
X132033333Y-105225760D02*
X132071428Y-105187664D01*
X132071428Y-105187664D02*
X132109523Y-105111474D01*
X132109523Y-105111474D02*
X132147619Y-104959093D01*
X132147619Y-104959093D02*
X132147619Y-104768617D01*
X132147619Y-104768617D02*
X132109523Y-104616236D01*
X132109523Y-104616236D02*
X132071428Y-104540045D01*
X132071428Y-104540045D02*
X132033333Y-104501950D01*
X132033333Y-104501950D02*
X131957142Y-104463855D01*
X132664285Y-107463855D02*
X132930952Y-107082902D01*
X133121428Y-107463855D02*
X133121428Y-106663855D01*
X133121428Y-106663855D02*
X132816666Y-106663855D01*
X132816666Y-106663855D02*
X132740476Y-106701950D01*
X132740476Y-106701950D02*
X132702381Y-106740045D01*
X132702381Y-106740045D02*
X132664285Y-106816236D01*
X132664285Y-106816236D02*
X132664285Y-106930521D01*
X132664285Y-106930521D02*
X132702381Y-107006712D01*
X132702381Y-107006712D02*
X132740476Y-107044807D01*
X132740476Y-107044807D02*
X132816666Y-107082902D01*
X132816666Y-107082902D02*
X133121428Y-107082902D01*
X131902381Y-107463855D02*
X132359524Y-107463855D01*
X132130952Y-107463855D02*
X132130952Y-106663855D01*
X132130952Y-106663855D02*
X132207143Y-106778140D01*
X132207143Y-106778140D02*
X132283333Y-106854331D01*
X132283333Y-106854331D02*
X132359524Y-106892426D01*
X131140476Y-107463855D02*
X131597619Y-107463855D01*
X131369047Y-107463855D02*
X131369047Y-106663855D01*
X131369047Y-106663855D02*
X131445238Y-106778140D01*
X131445238Y-106778140D02*
X131521428Y-106854331D01*
X131521428Y-106854331D02*
X131597619Y-106892426D01*
%TO.C,R9*%
X129812742Y-97977500D02*
X130287258Y-97977500D01*
X129812742Y-99022500D02*
X130287258Y-99022500D01*
%TO.C,R10*%
X129862742Y-104377500D02*
X130337258Y-104377500D01*
X129862742Y-105422500D02*
X130337258Y-105422500D01*
%TO.C,R11*%
X129562742Y-106577500D02*
X130037258Y-106577500D01*
X129562742Y-107622500D02*
X130037258Y-107622500D01*
%TD*%
M02*
