%TF.GenerationSoftware,KiCad,Pcbnew,8.0.4-8.0.4-0~ubuntu20.04.1*%
%TF.CreationDate,2024-08-22T16:05:33+09:00*%
%TF.ProjectId,pcb_blheli_s,7063625f-626c-4686-956c-695f732e6b69,rev?*%
%TF.SameCoordinates,Original*%
%TF.FileFunction,Copper,L2,Bot*%
%TF.FilePolarity,Positive*%
%FSLAX46Y46*%
G04 Gerber Fmt 4.6, Leading zero omitted, Abs format (unit mm)*
G04 Created by KiCad (PCBNEW 8.0.4-8.0.4-0~ubuntu20.04.1) date 2024-08-22 16:05:33*
%MOMM*%
%LPD*%
G01*
G04 APERTURE LIST*
G04 Aperture macros list*
%AMRoundRect*
0 Rectangle with rounded corners*
0 $1 Rounding radius*
0 $2 $3 $4 $5 $6 $7 $8 $9 X,Y pos of 4 corners*
0 Add a 4 corners polygon primitive as box body*
4,1,4,$2,$3,$4,$5,$6,$7,$8,$9,$2,$3,0*
0 Add four circle primitives for the rounded corners*
1,1,$1+$1,$2,$3*
1,1,$1+$1,$4,$5*
1,1,$1+$1,$6,$7*
1,1,$1+$1,$8,$9*
0 Add four rect primitives between the rounded corners*
20,1,$1+$1,$2,$3,$4,$5,0*
20,1,$1+$1,$4,$5,$6,$7,0*
20,1,$1+$1,$6,$7,$8,$9,0*
20,1,$1+$1,$8,$9,$2,$3,0*%
G04 Aperture macros list end*
%TA.AperFunction,CastellatedPad*%
%ADD10RoundRect,0.250000X-1.250000X-0.512000X1.250000X-0.512000X1.250000X0.512000X-1.250000X0.512000X0*%
%TD*%
%TA.AperFunction,ComponentPad*%
%ADD11RoundRect,0.250000X-1.250000X-0.512000X1.250000X-0.512000X1.250000X0.512000X-1.250000X0.512000X0*%
%TD*%
%TA.AperFunction,ComponentPad*%
%ADD12R,1.000000X1.000000*%
%TD*%
%TA.AperFunction,ComponentPad*%
%ADD13O,1.000000X1.000000*%
%TD*%
%TA.AperFunction,ComponentPad*%
%ADD14R,1.350000X1.350000*%
%TD*%
%TA.AperFunction,ComponentPad*%
%ADD15O,1.350000X1.350000*%
%TD*%
%TA.AperFunction,SMDPad,CuDef*%
%ADD16RoundRect,0.200000X0.200000X0.275000X-0.200000X0.275000X-0.200000X-0.275000X0.200000X-0.275000X0*%
%TD*%
%TA.AperFunction,ViaPad*%
%ADD17C,0.600000*%
%TD*%
%TA.AperFunction,Conductor*%
%ADD18C,0.200000*%
%TD*%
%TA.AperFunction,Conductor*%
%ADD19C,0.800000*%
%TD*%
%TA.AperFunction,Conductor*%
%ADD20C,0.400000*%
%TD*%
G04 APERTURE END LIST*
D10*
%TO.P,J1,1,Pin_1*%
%TO.N,/RC_IN*%
X113300000Y-100720000D03*
D11*
%TO.P,J1,2,Pin_2*%
%TO.N,VDC*%
X113300000Y-103260000D03*
%TO.P,J1,3,Pin_3*%
%TO.N,GND*%
X113300000Y-105800000D03*
%TD*%
D12*
%TO.P,J2,1,Pin_1*%
%TO.N,GND*%
X121900000Y-108600000D03*
D13*
%TO.P,J2,2,Pin_2*%
%TO.N,+3.3V*%
X123170000Y-108600000D03*
%TO.P,J2,3,Pin_3*%
%TO.N,/C2CK*%
X124440000Y-108600000D03*
%TO.P,J2,4,Pin_4*%
%TO.N,/C2D*%
X125710000Y-108600000D03*
%TD*%
D14*
%TO.P,J3,1,Pin_1*%
%TO.N,Net-(J3-Pin_1)*%
X140100000Y-101000000D03*
D15*
%TO.P,J3,2,Pin_2*%
%TO.N,Net-(J3-Pin_2)*%
X140100000Y-103000000D03*
%TO.P,J3,3,Pin_3*%
%TO.N,Net-(J3-Pin_3)*%
X140100000Y-105000000D03*
%TD*%
D14*
%TO.P,J4,1,Pin_1*%
%TO.N,/TX0*%
X120700000Y-98100000D03*
D15*
%TO.P,J4,2,Pin_2*%
%TO.N,/RX0*%
X118700000Y-98100000D03*
%TO.P,J4,3,Pin_3*%
%TO.N,GND*%
X116700000Y-98100000D03*
%TD*%
D16*
%TO.P,R9,1*%
%TO.N,GND*%
X130875000Y-98500000D03*
%TO.P,R9,2*%
%TO.N,/MUX_A*%
X129225000Y-98500000D03*
%TD*%
%TO.P,R10,1*%
%TO.N,GND*%
X130925000Y-104900000D03*
%TO.P,R10,2*%
%TO.N,/MUX_B*%
X129275000Y-104900000D03*
%TD*%
%TO.P,R11,1*%
%TO.N,GND*%
X130625000Y-107100000D03*
%TO.P,R11,2*%
%TO.N,/MUX_C*%
X128975000Y-107100000D03*
%TD*%
D17*
%TO.N,/MUX_C*%
X128700000Y-107100000D03*
%TO.N,GND*%
X130200000Y-109200000D03*
X133500000Y-100600000D03*
X127900000Y-97800000D03*
X133400000Y-104200000D03*
X117700000Y-101800000D03*
X121200000Y-107600000D03*
X128000000Y-103000000D03*
X134300000Y-108700000D03*
X133500000Y-108700000D03*
X132100000Y-98400000D03*
X134250000Y-104637500D03*
X120286625Y-101050000D03*
X134900000Y-100600000D03*
X134200000Y-100600000D03*
X128000000Y-103800000D03*
X134300000Y-103600000D03*
X128000000Y-109200000D03*
X134300000Y-107700000D03*
%TO.N,+3.3V*%
X121500000Y-105300000D03*
%TO.N,VDC*%
X137750000Y-104750000D03*
X137750000Y-100800000D03*
X137750000Y-108700000D03*
%TO.N,/MUX_A*%
X129225000Y-98500000D03*
%TO.N,/COM_B*%
X135300000Y-105800000D03*
X127155554Y-106092809D03*
%TO.N,/PWM_B*%
X127048528Y-105300000D03*
X131759173Y-105873513D03*
%TO.N,/MUX_B*%
X122054275Y-102085704D03*
X128600000Y-104900000D03*
X127576584Y-104699034D03*
%TO.N,/PWM_A*%
X131900000Y-101400000D03*
X127500000Y-101400000D03*
%TO.N,/TX0*%
X125151473Y-99600000D03*
%TO.N,/MUX_C*%
X125775735Y-105724265D03*
X121299192Y-102350000D03*
%TO.N,/COM_A*%
X128065687Y-102000000D03*
X132000000Y-102200000D03*
%TO.N,/RX0*%
X125900000Y-99999998D03*
%TD*%
D18*
%TO.N,/MUX_C*%
X128975000Y-107100000D02*
X128700000Y-107100000D01*
%TO.N,/COM_B*%
X135300000Y-105800000D02*
X132700000Y-105800000D01*
X132700000Y-105800000D02*
X132026487Y-106473513D01*
X132026487Y-106473513D02*
X131510644Y-106473513D01*
X131510644Y-106473513D02*
X131237131Y-106200000D01*
X131237131Y-106200000D02*
X127262745Y-106200000D01*
X127262745Y-106200000D02*
X127155554Y-106092809D01*
D19*
%TO.N,VDC*%
X124199998Y-101099998D02*
X126300002Y-101099998D01*
X137750000Y-104750000D02*
X137750000Y-108700000D01*
X136525000Y-99575000D02*
X137750000Y-100800000D01*
X123000000Y-99900000D02*
X124199998Y-101099998D01*
X127825000Y-99575000D02*
X136525000Y-99575000D01*
X114940000Y-103260000D02*
X118300000Y-99900000D01*
D20*
X113750000Y-102725000D02*
X113725000Y-102750000D01*
D19*
X126300002Y-101099998D02*
X127825000Y-99575000D01*
X137750000Y-100800000D02*
X137750000Y-104750000D01*
D20*
X113725000Y-102750000D02*
X113303500Y-102750000D01*
D19*
X114000000Y-103260000D02*
X114940000Y-103260000D01*
X118300000Y-99900000D02*
X123000000Y-99900000D01*
D18*
%TO.N,/PWM_B*%
X131685660Y-105800000D02*
X127711275Y-105800000D01*
X131759173Y-105873513D02*
X131685660Y-105800000D01*
X127211275Y-105300000D02*
X127048528Y-105300000D01*
X127711275Y-105800000D02*
X127211275Y-105300000D01*
%TO.N,/MUX_B*%
X127576584Y-104699034D02*
X127575618Y-104700000D01*
X124000000Y-104700000D02*
X122054275Y-102754275D01*
X127575618Y-104700000D02*
X124000000Y-104700000D01*
X122054275Y-102754275D02*
X122054275Y-102085704D01*
X128600000Y-104900000D02*
X129275000Y-104900000D01*
%TO.N,/PWM_A*%
X131900000Y-101400000D02*
X127500000Y-101400000D01*
%TO.N,/TX0*%
X125151473Y-99600000D02*
X125100000Y-99600000D01*
X125100000Y-99600000D02*
X123600000Y-98100000D01*
X123600000Y-98100000D02*
X120700000Y-98100000D01*
%TO.N,/MUX_C*%
X121299192Y-102599192D02*
X121299192Y-102350000D01*
X125775735Y-105675735D02*
X125300000Y-105200000D01*
X125775735Y-105724265D02*
X125775735Y-105675735D01*
X125300000Y-105200000D02*
X123900000Y-105200000D01*
X123900000Y-105200000D02*
X121299192Y-102599192D01*
%TO.N,/COM_A*%
X132000000Y-102200000D02*
X131800000Y-102000000D01*
X131800000Y-102000000D02*
X128065687Y-102000000D01*
%TO.N,/RX0*%
X123600000Y-99200000D02*
X119800000Y-99200000D01*
X125900000Y-99999998D02*
X125600004Y-99999998D01*
X125400002Y-100200000D02*
X124600000Y-100200000D01*
X119800000Y-99200000D02*
X118700000Y-98100000D01*
X125600004Y-99999998D02*
X125400002Y-100200000D01*
X124600000Y-100200000D02*
X123600000Y-99200000D01*
%TD*%
%TA.AperFunction,Conductor*%
%TO.N,GND*%
G36*
X140191206Y-97520185D02*
G01*
X140211848Y-97536819D01*
X140963181Y-98288152D01*
X140996666Y-98349475D01*
X140999500Y-98375833D01*
X140999500Y-99907207D01*
X140979815Y-99974246D01*
X140927011Y-100020001D01*
X140857853Y-100029945D01*
X140846453Y-100027584D01*
X140819865Y-100024500D01*
X139380143Y-100024500D01*
X139380117Y-100024502D01*
X139355012Y-100027413D01*
X139355008Y-100027415D01*
X139252235Y-100072793D01*
X139172794Y-100152234D01*
X139127415Y-100255006D01*
X139127415Y-100255008D01*
X139124500Y-100280131D01*
X139124500Y-101719856D01*
X139124502Y-101719882D01*
X139127413Y-101744987D01*
X139127415Y-101744991D01*
X139172793Y-101847764D01*
X139172794Y-101847765D01*
X139252235Y-101927206D01*
X139355009Y-101972585D01*
X139380135Y-101975500D01*
X139464112Y-101975499D01*
X139531148Y-101995183D01*
X139576904Y-102047986D01*
X139586848Y-102117145D01*
X139557824Y-102180701D01*
X139542775Y-102195352D01*
X139406879Y-102306879D01*
X139284977Y-102455417D01*
X139284973Y-102455424D01*
X139194396Y-102624881D01*
X139138614Y-102808770D01*
X139119780Y-103000000D01*
X139138614Y-103191229D01*
X139194396Y-103375118D01*
X139284973Y-103544575D01*
X139284977Y-103544582D01*
X139406879Y-103693120D01*
X139555417Y-103815022D01*
X139555424Y-103815027D01*
X139696890Y-103890642D01*
X139746735Y-103939604D01*
X139762195Y-104007742D01*
X139738363Y-104073422D01*
X139696890Y-104109358D01*
X139555424Y-104184972D01*
X139555417Y-104184977D01*
X139406879Y-104306879D01*
X139284977Y-104455417D01*
X139284973Y-104455424D01*
X139194396Y-104624881D01*
X139138614Y-104808770D01*
X139119780Y-105000000D01*
X139138614Y-105191229D01*
X139194396Y-105375118D01*
X139284973Y-105544575D01*
X139284977Y-105544582D01*
X139406879Y-105693120D01*
X139555417Y-105815022D01*
X139555424Y-105815026D01*
X139724881Y-105905603D01*
X139724883Y-105905603D01*
X139724886Y-105905605D01*
X139908769Y-105961385D01*
X139908768Y-105961385D01*
X139925914Y-105963073D01*
X140100000Y-105980220D01*
X140291231Y-105961385D01*
X140475114Y-105905605D01*
X140644581Y-105815023D01*
X140793120Y-105693120D01*
X140793120Y-105693119D01*
X140796835Y-105690071D01*
X140861145Y-105662758D01*
X140930012Y-105674549D01*
X140981573Y-105721701D01*
X140999500Y-105785924D01*
X140999500Y-109524167D01*
X140979815Y-109591206D01*
X140963181Y-109611848D01*
X140211848Y-110363181D01*
X140150525Y-110396666D01*
X140124167Y-110399500D01*
X114475833Y-110399500D01*
X114408794Y-110379815D01*
X114388152Y-110363181D01*
X113636819Y-109611848D01*
X113603334Y-109550525D01*
X113600500Y-109524167D01*
X113600500Y-108599996D01*
X122364435Y-108599996D01*
X122364435Y-108600003D01*
X122384630Y-108779249D01*
X122384631Y-108779254D01*
X122444211Y-108949523D01*
X122495920Y-109031817D01*
X122540184Y-109102262D01*
X122667738Y-109229816D01*
X122820478Y-109325789D01*
X122957051Y-109373578D01*
X122990745Y-109385368D01*
X122990750Y-109385369D01*
X123169996Y-109405565D01*
X123170000Y-109405565D01*
X123170004Y-109405565D01*
X123349249Y-109385369D01*
X123349252Y-109385368D01*
X123349255Y-109385368D01*
X123519522Y-109325789D01*
X123672262Y-109229816D01*
X123717319Y-109184759D01*
X123778642Y-109151274D01*
X123848334Y-109156258D01*
X123892681Y-109184759D01*
X123937738Y-109229816D01*
X124090478Y-109325789D01*
X124227051Y-109373578D01*
X124260745Y-109385368D01*
X124260750Y-109385369D01*
X124439996Y-109405565D01*
X124440000Y-109405565D01*
X124440004Y-109405565D01*
X124619249Y-109385369D01*
X124619252Y-109385368D01*
X124619255Y-109385368D01*
X124789522Y-109325789D01*
X124942262Y-109229816D01*
X124987319Y-109184759D01*
X125048642Y-109151274D01*
X125118334Y-109156258D01*
X125162681Y-109184759D01*
X125207738Y-109229816D01*
X125360478Y-109325789D01*
X125497051Y-109373578D01*
X125530745Y-109385368D01*
X125530750Y-109385369D01*
X125709996Y-109405565D01*
X125710000Y-109405565D01*
X125710004Y-109405565D01*
X125889249Y-109385369D01*
X125889252Y-109385368D01*
X125889255Y-109385368D01*
X126059522Y-109325789D01*
X126212262Y-109229816D01*
X126339816Y-109102262D01*
X126435789Y-108949522D01*
X126495368Y-108779255D01*
X126496524Y-108768995D01*
X126515565Y-108600003D01*
X126515565Y-108599996D01*
X126495369Y-108420750D01*
X126495368Y-108420745D01*
X126435788Y-108250476D01*
X126396582Y-108188080D01*
X126339816Y-108097738D01*
X126212262Y-107970184D01*
X126059523Y-107874211D01*
X125889254Y-107814631D01*
X125889249Y-107814630D01*
X125710004Y-107794435D01*
X125709996Y-107794435D01*
X125530750Y-107814630D01*
X125530745Y-107814631D01*
X125360476Y-107874211D01*
X125207737Y-107970184D01*
X125162680Y-108015241D01*
X125101357Y-108048725D01*
X125031665Y-108043740D01*
X124987320Y-108015241D01*
X124942263Y-107970185D01*
X124942262Y-107970184D01*
X124789523Y-107874211D01*
X124619254Y-107814631D01*
X124619249Y-107814630D01*
X124440004Y-107794435D01*
X124439996Y-107794435D01*
X124260750Y-107814630D01*
X124260745Y-107814631D01*
X124090476Y-107874211D01*
X123937737Y-107970184D01*
X123892680Y-108015241D01*
X123831357Y-108048725D01*
X123761665Y-108043740D01*
X123717320Y-108015241D01*
X123672263Y-107970185D01*
X123672262Y-107970184D01*
X123519523Y-107874211D01*
X123349254Y-107814631D01*
X123349249Y-107814630D01*
X123170004Y-107794435D01*
X123169996Y-107794435D01*
X122990750Y-107814630D01*
X122990745Y-107814631D01*
X122820476Y-107874211D01*
X122667737Y-107970184D01*
X122540184Y-108097737D01*
X122444211Y-108250476D01*
X122384631Y-108420745D01*
X122384630Y-108420750D01*
X122364435Y-108599996D01*
X113600500Y-108599996D01*
X113600500Y-105299998D01*
X120894318Y-105299998D01*
X120894318Y-105300001D01*
X120914955Y-105456760D01*
X120914956Y-105456762D01*
X120975464Y-105602841D01*
X121071718Y-105728282D01*
X121197159Y-105824536D01*
X121343238Y-105885044D01*
X121421619Y-105895363D01*
X121499999Y-105905682D01*
X121500000Y-105905682D01*
X121500001Y-105905682D01*
X121552254Y-105898802D01*
X121656762Y-105885044D01*
X121802841Y-105824536D01*
X121928282Y-105728282D01*
X122024536Y-105602841D01*
X122085044Y-105456762D01*
X122105682Y-105300000D01*
X122100711Y-105262245D01*
X122085044Y-105143239D01*
X122085044Y-105143238D01*
X122024536Y-104997159D01*
X121928282Y-104871718D01*
X121802841Y-104775464D01*
X121656762Y-104714956D01*
X121656760Y-104714955D01*
X121500001Y-104694318D01*
X121499999Y-104694318D01*
X121343239Y-104714955D01*
X121343237Y-104714956D01*
X121197160Y-104775463D01*
X121071718Y-104871718D01*
X120975463Y-104997160D01*
X120914956Y-105143237D01*
X120914955Y-105143239D01*
X120894318Y-105299998D01*
X113600500Y-105299998D01*
X113600500Y-104446500D01*
X113620185Y-104379461D01*
X113672989Y-104333706D01*
X113724500Y-104322500D01*
X114593097Y-104322500D01*
X114593102Y-104322500D01*
X114681564Y-104311877D01*
X114822342Y-104256361D01*
X114942922Y-104164922D01*
X115034361Y-104044342D01*
X115047581Y-104010817D01*
X115090485Y-103955675D01*
X115138744Y-103934690D01*
X115144328Y-103933580D01*
X115247990Y-103890642D01*
X115271807Y-103880777D01*
X115271808Y-103880776D01*
X115271811Y-103880775D01*
X115386543Y-103804114D01*
X116840659Y-102349998D01*
X120693510Y-102349998D01*
X120693510Y-102350001D01*
X120714147Y-102506760D01*
X120714148Y-102506762D01*
X120763074Y-102624881D01*
X120774656Y-102652841D01*
X120870910Y-102778282D01*
X120996351Y-102874536D01*
X120996355Y-102874539D01*
X121003388Y-102878599D01*
X121002840Y-102879547D01*
X121033922Y-102900315D01*
X123654087Y-105520480D01*
X123745412Y-105573207D01*
X123847273Y-105600500D01*
X123952727Y-105600500D01*
X125046053Y-105600500D01*
X125113092Y-105620185D01*
X125158847Y-105672989D01*
X125168269Y-105716303D01*
X125168992Y-105716208D01*
X125190690Y-105881025D01*
X125190691Y-105881027D01*
X125222061Y-105956762D01*
X125251199Y-106027106D01*
X125347453Y-106152547D01*
X125472894Y-106248801D01*
X125618973Y-106309309D01*
X125697354Y-106319628D01*
X125775734Y-106329947D01*
X125775735Y-106329947D01*
X125775736Y-106329947D01*
X125827989Y-106323067D01*
X125932497Y-106309309D01*
X126078576Y-106248801D01*
X126204017Y-106152547D01*
X126300271Y-106027106D01*
X126318409Y-105983315D01*
X126362247Y-105928915D01*
X126428541Y-105906849D01*
X126496241Y-105924127D01*
X126543852Y-105975264D01*
X126556259Y-106044023D01*
X126555908Y-106046954D01*
X126549872Y-106092806D01*
X126549872Y-106092810D01*
X126570509Y-106249569D01*
X126570510Y-106249571D01*
X126601561Y-106324536D01*
X126631018Y-106395650D01*
X126727272Y-106521091D01*
X126852713Y-106617345D01*
X126998792Y-106677853D01*
X127077173Y-106688172D01*
X127155553Y-106698491D01*
X127155554Y-106698491D01*
X127155555Y-106698491D01*
X127207808Y-106691611D01*
X127312316Y-106677853D01*
X127458395Y-106617345D01*
X127458400Y-106617340D01*
X127458798Y-106617112D01*
X127459249Y-106616991D01*
X127465903Y-106614235D01*
X127466265Y-106615111D01*
X127520797Y-106600500D01*
X128074918Y-106600500D01*
X128141957Y-106620185D01*
X128187712Y-106672989D01*
X128197656Y-106742147D01*
X128177858Y-106789154D01*
X128179528Y-106790119D01*
X128175465Y-106797156D01*
X128114956Y-106943237D01*
X128114955Y-106943239D01*
X128094318Y-107099998D01*
X128094318Y-107100001D01*
X128114955Y-107256760D01*
X128114956Y-107256762D01*
X128175464Y-107402841D01*
X128271718Y-107528282D01*
X128280272Y-107534846D01*
X128320967Y-107589885D01*
X128331205Y-107617334D01*
X128417452Y-107732544D01*
X128417455Y-107732547D01*
X128532664Y-107818793D01*
X128532671Y-107818797D01*
X128577618Y-107835561D01*
X128667517Y-107869091D01*
X128727127Y-107875500D01*
X129222872Y-107875499D01*
X129282483Y-107869091D01*
X129417331Y-107818796D01*
X129532546Y-107732546D01*
X129618796Y-107617331D01*
X129669091Y-107482483D01*
X129675500Y-107422873D01*
X129675499Y-106777128D01*
X129671266Y-106737753D01*
X129683672Y-106668995D01*
X129731283Y-106617858D01*
X129794556Y-106600500D01*
X131019876Y-106600500D01*
X131086915Y-106620185D01*
X131107557Y-106636819D01*
X131264731Y-106793993D01*
X131356056Y-106846720D01*
X131457917Y-106874013D01*
X131457919Y-106874013D01*
X132079212Y-106874013D01*
X132079214Y-106874013D01*
X132181075Y-106846720D01*
X132272400Y-106793993D01*
X132829574Y-106236819D01*
X132890897Y-106203334D01*
X132917255Y-106200500D01*
X134793420Y-106200500D01*
X134860459Y-106220185D01*
X134868907Y-106226124D01*
X134871716Y-106228279D01*
X134871718Y-106228282D01*
X134997159Y-106324536D01*
X135143238Y-106385044D01*
X135221619Y-106395363D01*
X135299999Y-106405682D01*
X135300000Y-106405682D01*
X135300001Y-106405682D01*
X135376216Y-106395648D01*
X135456762Y-106385044D01*
X135602841Y-106324536D01*
X135728282Y-106228282D01*
X135824536Y-106102841D01*
X135885044Y-105956762D01*
X135905682Y-105800000D01*
X135904361Y-105789968D01*
X135885044Y-105643239D01*
X135885044Y-105643238D01*
X135824536Y-105497159D01*
X135728282Y-105371718D01*
X135602841Y-105275464D01*
X135584413Y-105267831D01*
X135456762Y-105214956D01*
X135456760Y-105214955D01*
X135300001Y-105194318D01*
X135299999Y-105194318D01*
X135143239Y-105214955D01*
X135143237Y-105214956D01*
X134997160Y-105275463D01*
X134973890Y-105293318D01*
X134871718Y-105371718D01*
X134871716Y-105371720D01*
X134868907Y-105373876D01*
X134803737Y-105399070D01*
X134793420Y-105399500D01*
X132647273Y-105399500D01*
X132545410Y-105426793D01*
X132454087Y-105479520D01*
X132454083Y-105479523D01*
X132418085Y-105515520D01*
X132356761Y-105549004D01*
X132287070Y-105544018D01*
X132232030Y-105503323D01*
X132227300Y-105497159D01*
X132196303Y-105456762D01*
X132187456Y-105445232D01*
X132127857Y-105399500D01*
X132062014Y-105348977D01*
X132062009Y-105348975D01*
X131915935Y-105288469D01*
X131915933Y-105288468D01*
X131759174Y-105267831D01*
X131759172Y-105267831D01*
X131602412Y-105288468D01*
X131602410Y-105288469D01*
X131456335Y-105348975D01*
X131456333Y-105348976D01*
X131456332Y-105348977D01*
X131426696Y-105371718D01*
X131423882Y-105373877D01*
X131358713Y-105399070D01*
X131348397Y-105399500D01*
X130094556Y-105399500D01*
X130027517Y-105379815D01*
X129981762Y-105327011D01*
X129971267Y-105262245D01*
X129971643Y-105258738D01*
X129975500Y-105222873D01*
X129975499Y-104577128D01*
X129969091Y-104517517D01*
X129945929Y-104455417D01*
X129918797Y-104382671D01*
X129918793Y-104382664D01*
X129832547Y-104267455D01*
X129832544Y-104267452D01*
X129717335Y-104181206D01*
X129717328Y-104181202D01*
X129582486Y-104130910D01*
X129582485Y-104130909D01*
X129582483Y-104130909D01*
X129522873Y-104124500D01*
X129522863Y-104124500D01*
X129027129Y-104124500D01*
X129027123Y-104124501D01*
X128967516Y-104130908D01*
X128832671Y-104181202D01*
X128832664Y-104181206D01*
X128710355Y-104272768D01*
X128708195Y-104269882D01*
X128661828Y-104295132D01*
X128619424Y-104296875D01*
X128600001Y-104294318D01*
X128599998Y-104294318D01*
X128443239Y-104314955D01*
X128443237Y-104314956D01*
X128297158Y-104375464D01*
X128262132Y-104402340D01*
X128196962Y-104427533D01*
X128128518Y-104413494D01*
X128088273Y-104379451D01*
X128004866Y-104270752D01*
X127879425Y-104174498D01*
X127774194Y-104130910D01*
X127733346Y-104113990D01*
X127733344Y-104113989D01*
X127576585Y-104093352D01*
X127576583Y-104093352D01*
X127419823Y-104113989D01*
X127419821Y-104113990D01*
X127273744Y-104174497D01*
X127265001Y-104181206D01*
X127148302Y-104270752D01*
X127148300Y-104270754D01*
X127144232Y-104273876D01*
X127079062Y-104299070D01*
X127068745Y-104299500D01*
X124217254Y-104299500D01*
X124150215Y-104279815D01*
X124129573Y-104263181D01*
X122515088Y-102648695D01*
X122481603Y-102587372D01*
X122486587Y-102517680D01*
X122504389Y-102485533D01*
X122578811Y-102388545D01*
X122639319Y-102242466D01*
X122659957Y-102085704D01*
X122658494Y-102074594D01*
X122639319Y-101928943D01*
X122639319Y-101928942D01*
X122578811Y-101782863D01*
X122482557Y-101657422D01*
X122357116Y-101561168D01*
X122346474Y-101556760D01*
X122211037Y-101500660D01*
X122211035Y-101500659D01*
X122054276Y-101480022D01*
X122054274Y-101480022D01*
X121897514Y-101500659D01*
X121897512Y-101500660D01*
X121751435Y-101561167D01*
X121668348Y-101624922D01*
X121625993Y-101657422D01*
X121580769Y-101716360D01*
X121578991Y-101718677D01*
X121522562Y-101759879D01*
X121464363Y-101763346D01*
X121464012Y-101766017D01*
X121455954Y-101764956D01*
X121376297Y-101754469D01*
X121299193Y-101744318D01*
X121299191Y-101744318D01*
X121142431Y-101764955D01*
X121142429Y-101764956D01*
X120996352Y-101825463D01*
X120870910Y-101921718D01*
X120774655Y-102047160D01*
X120714148Y-102193237D01*
X120714147Y-102193239D01*
X120693510Y-102349998D01*
X116840659Y-102349998D01*
X118553838Y-100636819D01*
X118615161Y-100603334D01*
X118641519Y-100600500D01*
X122658481Y-100600500D01*
X122725520Y-100620185D01*
X122746162Y-100636819D01*
X123206503Y-101097159D01*
X123655884Y-101546540D01*
X123706527Y-101597183D01*
X123753457Y-101644113D01*
X123868180Y-101720769D01*
X123868193Y-101720776D01*
X123925029Y-101744318D01*
X123960349Y-101758948D01*
X123995669Y-101773578D01*
X123995672Y-101773578D01*
X123995677Y-101773580D01*
X124022543Y-101778923D01*
X124022549Y-101778924D01*
X124022589Y-101778932D01*
X124112935Y-101796903D01*
X124131004Y-101800498D01*
X124131005Y-101800498D01*
X126368998Y-101800498D01*
X126477459Y-101778923D01*
X126504330Y-101773578D01*
X126594982Y-101736029D01*
X126631809Y-101720775D01*
X126631810Y-101720774D01*
X126631813Y-101720773D01*
X126746545Y-101644112D01*
X126759989Y-101630667D01*
X126821309Y-101597183D01*
X126891001Y-101602165D01*
X126946936Y-101644035D01*
X126962232Y-101670896D01*
X126975462Y-101702838D01*
X126975463Y-101702840D01*
X126975464Y-101702841D01*
X127071718Y-101828282D01*
X127197159Y-101924536D01*
X127343238Y-101985044D01*
X127365724Y-101988004D01*
X127429621Y-102016270D01*
X127468093Y-102074594D01*
X127472479Y-102094756D01*
X127480643Y-102156761D01*
X127480643Y-102156762D01*
X127496627Y-102195352D01*
X127541151Y-102302841D01*
X127637405Y-102428282D01*
X127762846Y-102524536D01*
X127908925Y-102585044D01*
X127934280Y-102588382D01*
X128065686Y-102605682D01*
X128065687Y-102605682D01*
X128065688Y-102605682D01*
X128117941Y-102598802D01*
X128222449Y-102585044D01*
X128368528Y-102524536D01*
X128493969Y-102428282D01*
X128493970Y-102428279D01*
X128496780Y-102426124D01*
X128561950Y-102400930D01*
X128572267Y-102400500D01*
X131350219Y-102400500D01*
X131417258Y-102420185D01*
X131463013Y-102472989D01*
X131464780Y-102477048D01*
X131475462Y-102502838D01*
X131475463Y-102502839D01*
X131475464Y-102502841D01*
X131571718Y-102628282D01*
X131697159Y-102724536D01*
X131843238Y-102785044D01*
X131921619Y-102795363D01*
X131999999Y-102805682D01*
X132000000Y-102805682D01*
X132000001Y-102805682D01*
X132052254Y-102798802D01*
X132156762Y-102785044D01*
X132302841Y-102724536D01*
X132428282Y-102628282D01*
X132524536Y-102502841D01*
X132585044Y-102356762D01*
X132605682Y-102200000D01*
X132602761Y-102177815D01*
X132585044Y-102043239D01*
X132585044Y-102043238D01*
X132524536Y-101897159D01*
X132524535Y-101897158D01*
X132524535Y-101897157D01*
X132450903Y-101801198D01*
X132425709Y-101736029D01*
X132434718Y-101678259D01*
X132448894Y-101644035D01*
X132485044Y-101556762D01*
X132505682Y-101400000D01*
X132485044Y-101243238D01*
X132424536Y-101097159D01*
X132328282Y-100971718D01*
X132202841Y-100875464D01*
X132056762Y-100814956D01*
X132056760Y-100814955D01*
X131900001Y-100794318D01*
X131899999Y-100794318D01*
X131743239Y-100814955D01*
X131743237Y-100814956D01*
X131597160Y-100875463D01*
X131597159Y-100875464D01*
X131471718Y-100971718D01*
X131471716Y-100971720D01*
X131468907Y-100973876D01*
X131403737Y-100999070D01*
X131393420Y-100999500D01*
X128006580Y-100999500D01*
X127939541Y-100979815D01*
X127931093Y-100973876D01*
X127928283Y-100971720D01*
X127928282Y-100971718D01*
X127802841Y-100875464D01*
X127770894Y-100862231D01*
X127716491Y-100818390D01*
X127694426Y-100752095D01*
X127711706Y-100684396D01*
X127730661Y-100659994D01*
X128078838Y-100311819D01*
X128140161Y-100278334D01*
X128166519Y-100275500D01*
X136183481Y-100275500D01*
X136250520Y-100295185D01*
X136271162Y-100311819D01*
X137013181Y-101053838D01*
X137046666Y-101115161D01*
X137049500Y-101141519D01*
X137049500Y-104681007D01*
X137049500Y-108768993D01*
X137049500Y-108768995D01*
X137049499Y-108768995D01*
X137076418Y-108904322D01*
X137076421Y-108904332D01*
X137129221Y-109031804D01*
X137129228Y-109031817D01*
X137205885Y-109146541D01*
X137205888Y-109146545D01*
X137303454Y-109244111D01*
X137303458Y-109244114D01*
X137418182Y-109320771D01*
X137418195Y-109320778D01*
X137545667Y-109373578D01*
X137545672Y-109373580D01*
X137545676Y-109373580D01*
X137545677Y-109373581D01*
X137681004Y-109400500D01*
X137681007Y-109400500D01*
X137818995Y-109400500D01*
X137910041Y-109382389D01*
X137954328Y-109373580D01*
X138081811Y-109320775D01*
X138196542Y-109244114D01*
X138294114Y-109146542D01*
X138370775Y-109031811D01*
X138423580Y-108904328D01*
X138450500Y-108768993D01*
X138450500Y-104681007D01*
X138450500Y-100731007D01*
X138450500Y-100731004D01*
X138423581Y-100595677D01*
X138423580Y-100595676D01*
X138423580Y-100595672D01*
X138370775Y-100468189D01*
X138344109Y-100428280D01*
X138294114Y-100353457D01*
X138294112Y-100353454D01*
X136971545Y-99030887D01*
X136856807Y-98954222D01*
X136729332Y-98901421D01*
X136729322Y-98901418D01*
X136593996Y-98874500D01*
X136593994Y-98874500D01*
X136593993Y-98874500D01*
X130049500Y-98874500D01*
X129982461Y-98854815D01*
X129936706Y-98802011D01*
X129925500Y-98750500D01*
X129925499Y-98177129D01*
X129925498Y-98177123D01*
X129919091Y-98117516D01*
X129868797Y-97982671D01*
X129868793Y-97982664D01*
X129782547Y-97867455D01*
X129782544Y-97867452D01*
X129667335Y-97781206D01*
X129667328Y-97781202D01*
X129558686Y-97740682D01*
X129502752Y-97698811D01*
X129478335Y-97633347D01*
X129493186Y-97565074D01*
X129542591Y-97515668D01*
X129602019Y-97500500D01*
X140124167Y-97500500D01*
X140191206Y-97520185D01*
G37*
%TD.AperFunction*%
%TA.AperFunction,Conductor*%
G36*
X117774489Y-97520185D02*
G01*
X117820244Y-97572989D01*
X117830188Y-97642147D01*
X117816808Y-97682953D01*
X117794396Y-97724881D01*
X117738614Y-97908770D01*
X117719780Y-98100000D01*
X117738614Y-98291229D01*
X117794396Y-98475118D01*
X117884973Y-98644575D01*
X117884977Y-98644582D01*
X118006879Y-98793120D01*
X118155417Y-98915022D01*
X118155424Y-98915026D01*
X118258157Y-98969938D01*
X118308001Y-99018900D01*
X118323462Y-99087037D01*
X118299631Y-99152717D01*
X118244073Y-99195086D01*
X118223896Y-99200913D01*
X118095677Y-99226418D01*
X118095667Y-99226421D01*
X117968192Y-99279222D01*
X117853454Y-99355887D01*
X114967795Y-102241546D01*
X114906472Y-102275031D01*
X114836780Y-102270047D01*
X114826562Y-102265303D01*
X114681561Y-102208122D01*
X114635926Y-102202642D01*
X114593102Y-102197500D01*
X114593097Y-102197500D01*
X113724500Y-102197500D01*
X113657461Y-102177815D01*
X113611706Y-102125011D01*
X113600500Y-102073500D01*
X113600500Y-101906500D01*
X113620185Y-101839461D01*
X113672989Y-101793706D01*
X113724500Y-101782500D01*
X114593097Y-101782500D01*
X114593102Y-101782500D01*
X114681564Y-101771877D01*
X114822342Y-101716361D01*
X114942922Y-101624922D01*
X115034361Y-101504342D01*
X115089877Y-101363564D01*
X115100500Y-101275102D01*
X115100500Y-100164898D01*
X115089877Y-100076436D01*
X115034361Y-99935658D01*
X115034360Y-99935657D01*
X115034360Y-99935656D01*
X114942922Y-99815077D01*
X114822343Y-99723639D01*
X114681561Y-99668122D01*
X114635926Y-99662642D01*
X114593102Y-99657500D01*
X114593097Y-99657500D01*
X113724500Y-99657500D01*
X113657461Y-99637815D01*
X113611706Y-99585011D01*
X113600500Y-99533500D01*
X113600500Y-98375833D01*
X113620185Y-98308794D01*
X113636819Y-98288152D01*
X114388152Y-97536819D01*
X114449475Y-97503334D01*
X114475833Y-97500500D01*
X117707450Y-97500500D01*
X117774489Y-97520185D01*
G37*
%TD.AperFunction*%
%TA.AperFunction,Conductor*%
G36*
X128915020Y-97520185D02*
G01*
X128960775Y-97572989D01*
X128970719Y-97642147D01*
X128941694Y-97705703D01*
X128891314Y-97740682D01*
X128782671Y-97781202D01*
X128782664Y-97781206D01*
X128667455Y-97867452D01*
X128667452Y-97867455D01*
X128581206Y-97982664D01*
X128581202Y-97982671D01*
X128537442Y-98100000D01*
X128530909Y-98117517D01*
X128524500Y-98177127D01*
X128524500Y-98475118D01*
X128524501Y-98750500D01*
X128504817Y-98817539D01*
X128452013Y-98863294D01*
X128400501Y-98874500D01*
X127756004Y-98874500D01*
X127620677Y-98901418D01*
X127620667Y-98901421D01*
X127493192Y-98954222D01*
X127378454Y-99030887D01*
X126640010Y-99769331D01*
X126578687Y-99802816D01*
X126508995Y-99797832D01*
X126453062Y-99755960D01*
X126437768Y-99729102D01*
X126424537Y-99697159D01*
X126424536Y-99697158D01*
X126424536Y-99697157D01*
X126328282Y-99571716D01*
X126202841Y-99475462D01*
X126056762Y-99414954D01*
X126056760Y-99414953D01*
X125900001Y-99394316D01*
X125899999Y-99394316D01*
X125820089Y-99404836D01*
X125751054Y-99394070D01*
X125698798Y-99347690D01*
X125689343Y-99329350D01*
X125676009Y-99297160D01*
X125676009Y-99297159D01*
X125579755Y-99171718D01*
X125454314Y-99075464D01*
X125420324Y-99061385D01*
X125308235Y-99014956D01*
X125308233Y-99014955D01*
X125151475Y-98994318D01*
X125151471Y-98994318D01*
X125131895Y-98996895D01*
X125062860Y-98986129D01*
X125028030Y-98961637D01*
X123845915Y-97779522D01*
X123845913Y-97779520D01*
X123763411Y-97731887D01*
X123715196Y-97681319D01*
X123701974Y-97612712D01*
X123727942Y-97547847D01*
X123784857Y-97507320D01*
X123825412Y-97500500D01*
X128847981Y-97500500D01*
X128915020Y-97520185D01*
G37*
%TD.AperFunction*%
%TD*%
M02*
