M48
; DRILL file {KiCad 8.0.4-8.0.4-0~ubuntu20.04.1} date 2024-08-22T16:05:35+0900
; FORMAT={3:3/ absolute / metric / keep zeros}
; #@! TF.CreationDate,2024-08-22T16:05:35+09:00
; #@! TF.GenerationSoftware,Kicad,Pcbnew,8.0.4-8.0.4-0~ubuntu20.04.1
; #@! TF.FileFunction,MixedPlating,1,2
FMAT,2
METRIC
; #@! TA.AperFunction,Plated,PTH,ViaDrill
T1C0.300
; #@! TA.AperFunction,Plated,PTH,ComponentDrill
T2C0.650
; #@! TA.AperFunction,Plated,PTH,ComponentDrill
T3C0.800
; #@! TA.AperFunction,Plated,PTH,ComponentDrill
T4C0.900
%
G90
G05
T1
X117700Y-101800
X120287Y-101050
X121200Y-107600
X121299Y-102350
X121500Y-105300
X122054Y-102086
X125151Y-099600
X125776Y-105724
X125900Y-100000
X127049Y-105300
X127156Y-106093
X127500Y-101400
X127577Y-104699
X127900Y-097800
X128000Y-103000
X128000Y-103800
X128000Y-109200
X128066Y-102000
X128600Y-104900
X128700Y-107100
X129225Y-098500
X130200Y-109200
X131759Y-105874
X131900Y-101400
X132000Y-102200
X132100Y-098400
X133400Y-104200
X133500Y-100600
X133500Y-108700
X134200Y-100600
X134250Y-104638
X134300Y-103600
X134300Y-107700
X134300Y-108700
X134900Y-100600
X135300Y-105800
X137750Y-100800
X137750Y-104750
X137750Y-108700
T2
X121900Y-108600
X123170Y-108600
X124440Y-108600
X125710Y-108600
T3
X116700Y-098100
X118700Y-098100
X120700Y-098100
X140100Y-101000
X140100Y-103000
X140100Y-105000
T4
X113300Y-100720
X113300Y-103260
X113300Y-105800
M30
