M48
; DRILL file {KiCad 8.0.4-8.0.4-0~ubuntu20.04.1} date 2024-08-05T10:16:08+0900
; FORMAT={3:3/ absolute / metric / keep zeros}
; #@! TF.CreationDate,2024-08-05T10:16:08+09:00
; #@! TF.GenerationSoftware,Kicad,Pcbnew,8.0.4-8.0.4-0~ubuntu20.04.1
; #@! TF.FileFunction,MixedPlating,1,2
FMAT,2
METRIC
; #@! TA.AperFunction,Plated,PTH,ViaDrill
T1C0.300
; #@! TA.AperFunction,Plated,PTH,ComponentDrill
T2C0.650
; #@! TA.AperFunction,Plated,PTH,ComponentDrill
T3C0.762
%
G90
G05
T1
X118500Y-098500
X120325Y-102725
X120800Y-099400
X121974Y-099943
X122010Y-100850
X122200Y-105000
X125350Y-099100
X125645Y-105655
X125800Y-104700
X126300Y-103900
X126950Y-103150
X127075Y-102277
X127134Y-101435
X132000Y-101400
X132000Y-105900
X133600Y-108400
X134500Y-100500
X134600Y-104600
X135500Y-101600
X135800Y-105700
X137700Y-101500
X137700Y-105700
X137700Y-107300
T2
X120230Y-108250
X121500Y-108250
X122770Y-108250
X124040Y-108250
X140200Y-102000
X140200Y-103270
X140200Y-104540
T3
X113304Y-100210
X113304Y-102750
X113304Y-105290
M30
