%TF.GenerationSoftware,KiCad,Pcbnew,8.0.4*%
%TF.CreationDate,2024-08-20T23:17:39+09:00*%
%TF.ProjectId,pcb_blheli_s,7063625f-626c-4686-956c-695f732e6b69,rev?*%
%TF.SameCoordinates,Original*%
%TF.FileFunction,Copper,L2,Bot*%
%TF.FilePolarity,Positive*%
%FSLAX46Y46*%
G04 Gerber Fmt 4.6, Leading zero omitted, Abs format (unit mm)*
G04 Created by KiCad (PCBNEW 8.0.4) date 2024-08-20 23:17:39*
%MOMM*%
%LPD*%
G01*
G04 APERTURE LIST*
G04 Aperture macros list*
%AMRoundRect*
0 Rectangle with rounded corners*
0 $1 Rounding radius*
0 $2 $3 $4 $5 $6 $7 $8 $9 X,Y pos of 4 corners*
0 Add a 4 corners polygon primitive as box body*
4,1,4,$2,$3,$4,$5,$6,$7,$8,$9,$2,$3,0*
0 Add four circle primitives for the rounded corners*
1,1,$1+$1,$2,$3*
1,1,$1+$1,$4,$5*
1,1,$1+$1,$6,$7*
1,1,$1+$1,$8,$9*
0 Add four rect primitives between the rounded corners*
20,1,$1+$1,$2,$3,$4,$5,0*
20,1,$1+$1,$4,$5,$6,$7,0*
20,1,$1+$1,$6,$7,$8,$9,0*
20,1,$1+$1,$8,$9,$2,$3,0*%
G04 Aperture macros list end*
%TA.AperFunction,CastellatedPad*%
%ADD10RoundRect,0.250000X-1.250000X-0.512000X1.250000X-0.512000X1.250000X0.512000X-1.250000X0.512000X0*%
%TD*%
%TA.AperFunction,ComponentPad*%
%ADD11RoundRect,0.250000X-1.250000X-0.512000X1.250000X-0.512000X1.250000X0.512000X-1.250000X0.512000X0*%
%TD*%
%TA.AperFunction,ComponentPad*%
%ADD12R,1.000000X1.000000*%
%TD*%
%TA.AperFunction,ComponentPad*%
%ADD13O,1.000000X1.000000*%
%TD*%
%TA.AperFunction,ComponentPad*%
%ADD14R,1.350000X1.350000*%
%TD*%
%TA.AperFunction,ComponentPad*%
%ADD15O,1.350000X1.350000*%
%TD*%
%TA.AperFunction,SMDPad,CuDef*%
%ADD16RoundRect,0.200000X0.200000X0.275000X-0.200000X0.275000X-0.200000X-0.275000X0.200000X-0.275000X0*%
%TD*%
%TA.AperFunction,ViaPad*%
%ADD17C,0.600000*%
%TD*%
%TA.AperFunction,Conductor*%
%ADD18C,0.800000*%
%TD*%
%TA.AperFunction,Conductor*%
%ADD19C,0.200000*%
%TD*%
%TA.AperFunction,Conductor*%
%ADD20C,0.300000*%
%TD*%
%TA.AperFunction,Conductor*%
%ADD21C,0.400000*%
%TD*%
G04 APERTURE END LIST*
D10*
%TO.P,J1,1,Pin_1*%
%TO.N,/RC_IN*%
X113300000Y-100720000D03*
D11*
%TO.P,J1,2,Pin_2*%
%TO.N,VDC*%
X113300000Y-103260000D03*
%TO.P,J1,3,Pin_3*%
%TO.N,GND*%
X113300000Y-105800000D03*
%TD*%
D12*
%TO.P,J2,1,Pin_1*%
%TO.N,GND*%
X121900000Y-108600000D03*
D13*
%TO.P,J2,2,Pin_2*%
%TO.N,/C2CK*%
X123170000Y-108600000D03*
%TO.P,J2,3,Pin_3*%
%TO.N,+3.3V*%
X124440000Y-108600000D03*
%TO.P,J2,4,Pin_4*%
%TO.N,/C2D*%
X125710000Y-108600000D03*
%TD*%
D14*
%TO.P,J3,1,Pin_1*%
%TO.N,Net-(J3-Pin_1)*%
X140000000Y-101100000D03*
D15*
%TO.P,J3,2,Pin_2*%
%TO.N,Net-(J3-Pin_2)*%
X140000000Y-103100000D03*
%TO.P,J3,3,Pin_3*%
%TO.N,Net-(J3-Pin_3)*%
X140000000Y-105100000D03*
%TD*%
D14*
%TO.P,J4,1,Pin_1*%
%TO.N,/TX0*%
X120700000Y-98100000D03*
D15*
%TO.P,J4,2,Pin_2*%
%TO.N,/RX0*%
X118700000Y-98100000D03*
%TO.P,J4,3,Pin_3*%
%TO.N,GND*%
X116700000Y-98100000D03*
%TD*%
D16*
%TO.P,R9,1*%
%TO.N,GND*%
X130875000Y-98500000D03*
%TO.P,R9,2*%
%TO.N,/MUX_A*%
X129225000Y-98500000D03*
%TD*%
%TO.P,R10,1*%
%TO.N,GND*%
X130925000Y-104900000D03*
%TO.P,R10,2*%
%TO.N,/MUX_B*%
X129275000Y-104900000D03*
%TD*%
%TO.P,R11,1*%
%TO.N,GND*%
X130925000Y-106600000D03*
%TO.P,R11,2*%
%TO.N,/MUX_C*%
X129275000Y-106600000D03*
%TD*%
D17*
%TO.N,GND*%
X121200000Y-107600000D03*
X128000000Y-109200000D03*
X130200000Y-109200000D03*
X127900000Y-97800000D03*
X128000000Y-103800000D03*
X138400000Y-101000000D03*
X117700000Y-101800000D03*
X128000000Y-103000000D03*
X138400000Y-101700000D03*
X138600000Y-109300000D03*
X132100000Y-98400000D03*
X120286625Y-101050000D03*
X138500000Y-105300000D03*
X138500000Y-104600000D03*
X138600000Y-108600000D03*
%TO.N,+3.3V*%
X122900000Y-105400000D03*
X120250000Y-102950000D03*
%TO.N,VDC*%
X133578989Y-99471011D03*
X133520362Y-106200000D03*
X133578989Y-103000000D03*
%TO.N,/MUX_A*%
X129225000Y-98500000D03*
%TO.N,/COM_B*%
X135850000Y-105650000D03*
X127155554Y-106092809D03*
%TO.N,/PWM_B*%
X127048528Y-105300000D03*
X131759173Y-105873513D03*
%TO.N,/MUX_B*%
X122054275Y-102085704D03*
X128600000Y-104900000D03*
X127576584Y-104699034D03*
%TO.N,/PWM_A*%
X131900000Y-101400000D03*
X127500000Y-101400000D03*
%TO.N,/TX0*%
X125151473Y-99600000D03*
%TO.N,/MUX_C*%
X125775735Y-105724265D03*
X121299192Y-102350000D03*
X128700000Y-106425000D03*
%TO.N,/COM_A*%
X128065687Y-102000000D03*
X132000000Y-102200000D03*
%TO.N,/RX0*%
X125900000Y-99999998D03*
%TD*%
D18*
%TO.N,VDC*%
X118300000Y-99900000D02*
X114940000Y-103260000D01*
X123000000Y-99900000D02*
X118300000Y-99900000D01*
X124199998Y-101099998D02*
X123000000Y-99900000D01*
X114940000Y-103260000D02*
X114000000Y-103260000D01*
X126900000Y-100500000D02*
X126300002Y-101099998D01*
X126300002Y-101099998D02*
X124199998Y-101099998D01*
X132600000Y-100500000D02*
X126900000Y-100500000D01*
D19*
%TO.N,/RX0*%
X119800000Y-99200000D02*
X118700000Y-98100000D01*
X123600000Y-99200000D02*
X119800000Y-99200000D01*
X124600000Y-100200000D02*
X123600000Y-99200000D01*
X125400002Y-100200000D02*
X124600000Y-100200000D01*
X125900000Y-99999998D02*
X125600004Y-99999998D01*
X125600004Y-99999998D02*
X125400002Y-100200000D01*
%TO.N,/TX0*%
X123600000Y-98100000D02*
X120700000Y-98100000D01*
X125151473Y-99600000D02*
X125100000Y-99600000D01*
X125100000Y-99600000D02*
X123600000Y-98100000D01*
%TO.N,/COM_B*%
X129100000Y-107800000D02*
X127392809Y-106092809D01*
X134700000Y-107800000D02*
X129100000Y-107800000D01*
X135850000Y-105650000D02*
X135850000Y-106650000D01*
X127392809Y-106092809D02*
X127155554Y-106092809D01*
X135850000Y-106650000D02*
X134700000Y-107800000D01*
%TO.N,/COM_A*%
X131800000Y-102000000D02*
X128065687Y-102000000D01*
X132000000Y-102200000D02*
X131800000Y-102000000D01*
%TO.N,/MUX_C*%
X121299192Y-102599192D02*
X121299192Y-102350000D01*
X125300000Y-105200000D02*
X123900000Y-105200000D01*
X123900000Y-105200000D02*
X121299192Y-102599192D01*
X125775735Y-105675735D02*
X125300000Y-105200000D01*
X125775735Y-105724265D02*
X125775735Y-105675735D01*
D20*
%TO.N,+3.3V*%
X122900000Y-105400000D02*
X122900000Y-105100000D01*
X120750000Y-102950000D02*
X120250000Y-102950000D01*
X122900000Y-105100000D02*
X120750000Y-102950000D01*
D18*
%TO.N,VDC*%
X133578989Y-103000000D02*
X133800000Y-103221011D01*
X132600000Y-100500000D02*
X133578989Y-101478989D01*
D21*
X133520362Y-99529638D02*
X133578989Y-99471011D01*
D18*
X133578989Y-99521011D02*
X132600000Y-100500000D01*
X133578989Y-101478989D02*
X133578989Y-103000000D01*
D21*
X113750000Y-102725000D02*
X113725000Y-102750000D01*
D18*
X133800000Y-105920362D02*
X133520362Y-106200000D01*
X133578989Y-99471011D02*
X133578989Y-99521011D01*
D21*
X113725000Y-102750000D02*
X113303500Y-102750000D01*
D18*
X133800000Y-103221011D02*
X133800000Y-105920362D01*
D19*
%TO.N,/PWM_B*%
X131685660Y-105800000D02*
X127711275Y-105800000D01*
X131759173Y-105873513D02*
X131685660Y-105800000D01*
X127211275Y-105300000D02*
X127048528Y-105300000D01*
X127711275Y-105800000D02*
X127211275Y-105300000D01*
%TO.N,/MUX_B*%
X127576584Y-104699034D02*
X127575618Y-104700000D01*
X124000000Y-104700000D02*
X122054275Y-102754275D01*
X127575618Y-104700000D02*
X124000000Y-104700000D01*
X122054275Y-102754275D02*
X122054275Y-102085704D01*
X128600000Y-104900000D02*
X129275000Y-104900000D01*
%TO.N,/PWM_A*%
X131900000Y-101400000D02*
X127500000Y-101400000D01*
%TO.N,/MUX_C*%
X129100000Y-106425000D02*
X129275000Y-106600000D01*
X128700000Y-106425000D02*
X129100000Y-106425000D01*
%TD*%
%TA.AperFunction,Conductor*%
%TO.N,GND*%
G36*
X128915020Y-97520185D02*
G01*
X128960775Y-97572989D01*
X128970719Y-97642147D01*
X128941694Y-97705703D01*
X128891314Y-97740682D01*
X128782671Y-97781202D01*
X128782664Y-97781206D01*
X128667455Y-97867452D01*
X128667452Y-97867455D01*
X128581206Y-97982664D01*
X128581202Y-97982671D01*
X128537442Y-98100000D01*
X128530909Y-98117517D01*
X128524500Y-98177127D01*
X128524500Y-98177134D01*
X128524500Y-98177135D01*
X128524500Y-98822870D01*
X128524501Y-98822876D01*
X128530908Y-98882483D01*
X128581202Y-99017328D01*
X128581206Y-99017335D01*
X128667452Y-99132544D01*
X128667455Y-99132547D01*
X128782664Y-99218793D01*
X128782671Y-99218797D01*
X128827618Y-99235561D01*
X128917517Y-99269091D01*
X128977127Y-99275500D01*
X129472872Y-99275499D01*
X129532483Y-99269091D01*
X129667331Y-99218796D01*
X129782546Y-99132546D01*
X129868796Y-99017331D01*
X129919091Y-98882483D01*
X129925500Y-98822873D01*
X129925499Y-98177128D01*
X129919091Y-98117517D01*
X129868796Y-97982669D01*
X129868795Y-97982668D01*
X129868793Y-97982664D01*
X129782547Y-97867455D01*
X129782544Y-97867452D01*
X129667335Y-97781206D01*
X129667328Y-97781202D01*
X129558686Y-97740682D01*
X129502752Y-97698811D01*
X129478335Y-97633347D01*
X129493186Y-97565074D01*
X129542591Y-97515668D01*
X129602019Y-97500500D01*
X140875500Y-97500500D01*
X140942539Y-97520185D01*
X140988294Y-97572989D01*
X140999500Y-97624500D01*
X140999500Y-100049490D01*
X140979815Y-100116529D01*
X140927011Y-100162284D01*
X140857853Y-100172228D01*
X140825414Y-100162925D01*
X140810211Y-100156212D01*
X140744991Y-100127415D01*
X140719865Y-100124500D01*
X139280143Y-100124500D01*
X139280117Y-100124502D01*
X139255012Y-100127413D01*
X139255008Y-100127415D01*
X139152235Y-100172793D01*
X139072794Y-100252234D01*
X139027415Y-100355006D01*
X139027415Y-100355008D01*
X139024500Y-100380131D01*
X139024500Y-101819856D01*
X139024502Y-101819882D01*
X139027413Y-101844987D01*
X139027415Y-101844991D01*
X139072793Y-101947764D01*
X139072794Y-101947765D01*
X139152235Y-102027206D01*
X139255009Y-102072585D01*
X139280135Y-102075500D01*
X139364112Y-102075499D01*
X139431148Y-102095183D01*
X139476904Y-102147986D01*
X139486848Y-102217145D01*
X139457824Y-102280701D01*
X139442775Y-102295352D01*
X139306879Y-102406879D01*
X139184977Y-102555417D01*
X139184973Y-102555424D01*
X139094396Y-102724881D01*
X139038614Y-102908770D01*
X139019780Y-103100000D01*
X139038614Y-103291229D01*
X139094396Y-103475118D01*
X139184973Y-103644575D01*
X139184977Y-103644582D01*
X139306879Y-103793120D01*
X139455417Y-103915022D01*
X139455424Y-103915027D01*
X139596890Y-103990642D01*
X139646735Y-104039604D01*
X139662195Y-104107742D01*
X139638363Y-104173422D01*
X139596890Y-104209358D01*
X139455424Y-104284972D01*
X139455417Y-104284977D01*
X139306879Y-104406879D01*
X139184977Y-104555417D01*
X139184973Y-104555424D01*
X139094396Y-104724881D01*
X139038614Y-104908770D01*
X139019780Y-105100000D01*
X139038614Y-105291229D01*
X139094396Y-105475118D01*
X139184973Y-105644575D01*
X139184977Y-105644582D01*
X139306879Y-105793120D01*
X139455417Y-105915022D01*
X139455424Y-105915026D01*
X139624881Y-106005603D01*
X139624883Y-106005603D01*
X139624886Y-106005605D01*
X139808769Y-106061385D01*
X139808768Y-106061385D01*
X139825914Y-106063073D01*
X140000000Y-106080220D01*
X140191231Y-106061385D01*
X140375114Y-106005605D01*
X140393698Y-105995672D01*
X140526783Y-105924536D01*
X140544581Y-105915023D01*
X140693120Y-105793120D01*
X140755795Y-105716751D01*
X140779647Y-105687687D01*
X140837392Y-105648353D01*
X140907237Y-105646482D01*
X140967005Y-105682669D01*
X140997721Y-105745425D01*
X140999500Y-105766352D01*
X140999500Y-110275500D01*
X140979815Y-110342539D01*
X140927011Y-110388294D01*
X140875500Y-110399500D01*
X113724500Y-110399500D01*
X113657461Y-110379815D01*
X113611706Y-110327011D01*
X113600500Y-110275500D01*
X113600500Y-108599996D01*
X122364435Y-108599996D01*
X122364435Y-108600003D01*
X122384630Y-108779249D01*
X122384631Y-108779254D01*
X122444211Y-108949523D01*
X122535000Y-109094011D01*
X122540184Y-109102262D01*
X122667738Y-109229816D01*
X122820478Y-109325789D01*
X122990745Y-109385368D01*
X122990750Y-109385369D01*
X123169996Y-109405565D01*
X123170000Y-109405565D01*
X123170004Y-109405565D01*
X123349249Y-109385369D01*
X123349252Y-109385368D01*
X123349255Y-109385368D01*
X123519522Y-109325789D01*
X123672262Y-109229816D01*
X123717319Y-109184759D01*
X123778642Y-109151274D01*
X123848334Y-109156258D01*
X123892681Y-109184759D01*
X123937738Y-109229816D01*
X124090478Y-109325789D01*
X124260745Y-109385368D01*
X124260750Y-109385369D01*
X124439996Y-109405565D01*
X124440000Y-109405565D01*
X124440004Y-109405565D01*
X124619249Y-109385369D01*
X124619252Y-109385368D01*
X124619255Y-109385368D01*
X124789522Y-109325789D01*
X124942262Y-109229816D01*
X124987319Y-109184759D01*
X125048642Y-109151274D01*
X125118334Y-109156258D01*
X125162681Y-109184759D01*
X125207738Y-109229816D01*
X125360478Y-109325789D01*
X125530745Y-109385368D01*
X125530750Y-109385369D01*
X125709996Y-109405565D01*
X125710000Y-109405565D01*
X125710004Y-109405565D01*
X125889249Y-109385369D01*
X125889252Y-109385368D01*
X125889255Y-109385368D01*
X126059522Y-109325789D01*
X126212262Y-109229816D01*
X126339816Y-109102262D01*
X126435789Y-108949522D01*
X126495368Y-108779255D01*
X126515565Y-108600000D01*
X126495368Y-108420745D01*
X126435789Y-108250478D01*
X126339816Y-108097738D01*
X126212262Y-107970184D01*
X126059523Y-107874211D01*
X125889254Y-107814631D01*
X125889249Y-107814630D01*
X125710004Y-107794435D01*
X125709996Y-107794435D01*
X125530750Y-107814630D01*
X125530745Y-107814631D01*
X125360476Y-107874211D01*
X125207737Y-107970184D01*
X125162680Y-108015241D01*
X125101357Y-108048725D01*
X125031665Y-108043740D01*
X124987320Y-108015241D01*
X124942263Y-107970185D01*
X124942262Y-107970184D01*
X124789523Y-107874211D01*
X124619254Y-107814631D01*
X124619249Y-107814630D01*
X124440004Y-107794435D01*
X124439996Y-107794435D01*
X124260750Y-107814630D01*
X124260745Y-107814631D01*
X124090476Y-107874211D01*
X123937737Y-107970184D01*
X123892680Y-108015241D01*
X123831357Y-108048725D01*
X123761665Y-108043740D01*
X123717320Y-108015241D01*
X123672263Y-107970185D01*
X123672262Y-107970184D01*
X123519523Y-107874211D01*
X123349254Y-107814631D01*
X123349249Y-107814630D01*
X123170004Y-107794435D01*
X123169996Y-107794435D01*
X122990750Y-107814630D01*
X122990745Y-107814631D01*
X122820476Y-107874211D01*
X122667737Y-107970184D01*
X122540184Y-108097737D01*
X122444211Y-108250476D01*
X122384631Y-108420745D01*
X122384630Y-108420750D01*
X122364435Y-108599996D01*
X113600500Y-108599996D01*
X113600500Y-104446500D01*
X113620185Y-104379461D01*
X113672989Y-104333706D01*
X113724500Y-104322500D01*
X114593097Y-104322500D01*
X114593102Y-104322500D01*
X114681564Y-104311877D01*
X114822342Y-104256361D01*
X114942922Y-104164922D01*
X115034361Y-104044342D01*
X115047581Y-104010817D01*
X115090485Y-103955675D01*
X115138744Y-103934690D01*
X115144328Y-103933580D01*
X115216793Y-103903564D01*
X115271807Y-103880777D01*
X115271808Y-103880776D01*
X115271811Y-103880775D01*
X115386543Y-103804114D01*
X116240659Y-102949998D01*
X119644318Y-102949998D01*
X119644318Y-102950001D01*
X119664955Y-103106760D01*
X119664956Y-103106762D01*
X119725464Y-103252841D01*
X119821718Y-103378282D01*
X119947159Y-103474536D01*
X120093238Y-103535044D01*
X120171619Y-103545363D01*
X120249999Y-103555682D01*
X120250000Y-103555682D01*
X120250001Y-103555682D01*
X120302254Y-103548802D01*
X120406762Y-103535044D01*
X120536111Y-103481465D01*
X120605578Y-103473997D01*
X120668058Y-103505272D01*
X120671243Y-103508346D01*
X122283601Y-105120704D01*
X122317086Y-105182027D01*
X122315823Y-105235154D01*
X122316017Y-105235180D01*
X122315779Y-105236980D01*
X122315697Y-105240469D01*
X122314956Y-105243231D01*
X122294318Y-105399998D01*
X122294318Y-105400001D01*
X122314955Y-105556760D01*
X122314956Y-105556762D01*
X122360420Y-105666523D01*
X122375464Y-105702841D01*
X122471718Y-105828282D01*
X122597159Y-105924536D01*
X122743238Y-105985044D01*
X122821619Y-105995363D01*
X122899999Y-106005682D01*
X122900000Y-106005682D01*
X122900001Y-106005682D01*
X122952254Y-105998802D01*
X123056762Y-105985044D01*
X123202841Y-105924536D01*
X123328282Y-105828282D01*
X123424536Y-105702841D01*
X123475687Y-105579351D01*
X123519527Y-105524949D01*
X123585821Y-105502884D01*
X123652248Y-105519418D01*
X123654086Y-105520479D01*
X123654087Y-105520480D01*
X123745412Y-105573207D01*
X123847273Y-105600500D01*
X123952727Y-105600500D01*
X125046053Y-105600500D01*
X125113092Y-105620185D01*
X125158847Y-105672989D01*
X125168269Y-105716303D01*
X125168992Y-105716208D01*
X125190690Y-105881025D01*
X125190691Y-105881027D01*
X125238178Y-105995672D01*
X125251199Y-106027106D01*
X125347453Y-106152547D01*
X125472894Y-106248801D01*
X125618973Y-106309309D01*
X125697354Y-106319628D01*
X125775734Y-106329947D01*
X125775735Y-106329947D01*
X125775736Y-106329947D01*
X125827989Y-106323067D01*
X125932497Y-106309309D01*
X126078576Y-106248801D01*
X126204017Y-106152547D01*
X126300271Y-106027106D01*
X126318409Y-105983315D01*
X126362247Y-105928915D01*
X126428541Y-105906849D01*
X126496241Y-105924127D01*
X126543852Y-105975264D01*
X126556259Y-106044023D01*
X126555908Y-106046954D01*
X126549872Y-106092806D01*
X126549872Y-106092810D01*
X126570509Y-106249569D01*
X126570510Y-106249571D01*
X126592141Y-106301794D01*
X126631018Y-106395650D01*
X126727272Y-106521091D01*
X126852713Y-106617345D01*
X126998792Y-106677853D01*
X127077173Y-106688172D01*
X127155553Y-106698491D01*
X127155554Y-106698491D01*
X127155555Y-106698491D01*
X127183569Y-106694802D01*
X127312316Y-106677853D01*
X127312318Y-106677852D01*
X127312319Y-106677852D01*
X127320170Y-106675749D01*
X127321014Y-106678900D01*
X127375300Y-106673044D01*
X127437790Y-106704297D01*
X127441008Y-106707401D01*
X128775179Y-108041571D01*
X128775189Y-108041582D01*
X128779519Y-108045912D01*
X128779520Y-108045913D01*
X128854087Y-108120480D01*
X128945413Y-108173207D01*
X129047273Y-108200501D01*
X129047275Y-108200501D01*
X129160323Y-108200501D01*
X129160339Y-108200500D01*
X134752725Y-108200500D01*
X134752727Y-108200500D01*
X134854588Y-108173207D01*
X134945913Y-108120480D01*
X136085703Y-106980687D01*
X136085708Y-106980684D01*
X136095911Y-106970480D01*
X136095913Y-106970480D01*
X136170480Y-106895913D01*
X136223207Y-106804587D01*
X136250501Y-106702727D01*
X136250501Y-106597273D01*
X136250501Y-106589678D01*
X136250500Y-106589660D01*
X136250500Y-106156580D01*
X136270185Y-106089541D01*
X136276124Y-106081093D01*
X136278279Y-106078283D01*
X136278282Y-106078282D01*
X136374536Y-105952841D01*
X136435044Y-105806762D01*
X136451381Y-105682669D01*
X136455682Y-105650001D01*
X136455682Y-105649998D01*
X136435044Y-105493239D01*
X136435044Y-105493238D01*
X136374536Y-105347159D01*
X136278282Y-105221718D01*
X136152841Y-105125464D01*
X136141349Y-105120704D01*
X136006762Y-105064956D01*
X136006760Y-105064955D01*
X135850001Y-105044318D01*
X135849999Y-105044318D01*
X135693239Y-105064955D01*
X135693237Y-105064956D01*
X135547160Y-105125463D01*
X135421718Y-105221718D01*
X135325463Y-105347160D01*
X135264956Y-105493237D01*
X135264955Y-105493239D01*
X135244318Y-105649998D01*
X135244318Y-105650001D01*
X135264955Y-105806760D01*
X135264956Y-105806762D01*
X135315553Y-105928915D01*
X135325464Y-105952841D01*
X135421718Y-106078282D01*
X135421720Y-106078283D01*
X135423876Y-106081093D01*
X135449070Y-106146263D01*
X135449500Y-106156580D01*
X135449500Y-106432745D01*
X135429815Y-106499784D01*
X135413181Y-106520426D01*
X134570426Y-107363181D01*
X134509103Y-107396666D01*
X134482745Y-107399500D01*
X129955286Y-107399500D01*
X129888247Y-107379815D01*
X129842492Y-107327011D01*
X129832548Y-107257853D01*
X129856019Y-107201189D01*
X129918796Y-107117331D01*
X129969091Y-106982483D01*
X129975500Y-106922873D01*
X129975499Y-106324499D01*
X129995183Y-106257461D01*
X130047987Y-106211706D01*
X130099499Y-106200500D01*
X131192015Y-106200500D01*
X131259054Y-106220185D01*
X131290391Y-106249014D01*
X131305723Y-106268996D01*
X131330891Y-106301795D01*
X131456332Y-106398049D01*
X131602411Y-106458557D01*
X131680792Y-106468876D01*
X131759172Y-106479195D01*
X131759173Y-106479195D01*
X131759174Y-106479195D01*
X131811427Y-106472315D01*
X131915935Y-106458557D01*
X132062014Y-106398049D01*
X132187455Y-106301795D01*
X132283709Y-106176354D01*
X132344217Y-106030275D01*
X132364855Y-105873513D01*
X132364154Y-105868192D01*
X132344217Y-105716752D01*
X132344217Y-105716751D01*
X132283709Y-105570672D01*
X132187455Y-105445231D01*
X132062014Y-105348977D01*
X132062009Y-105348975D01*
X131915935Y-105288469D01*
X131915933Y-105288468D01*
X131759174Y-105267831D01*
X131759172Y-105267831D01*
X131602412Y-105288468D01*
X131602410Y-105288469D01*
X131456335Y-105348975D01*
X131456333Y-105348976D01*
X131423882Y-105373877D01*
X131358713Y-105399070D01*
X131348397Y-105399500D01*
X130094556Y-105399500D01*
X130027517Y-105379815D01*
X129981762Y-105327011D01*
X129971267Y-105262245D01*
X129973983Y-105236980D01*
X129975500Y-105222873D01*
X129975499Y-104577128D01*
X129969091Y-104517517D01*
X129962813Y-104500686D01*
X129918797Y-104382671D01*
X129918793Y-104382664D01*
X129832547Y-104267455D01*
X129832544Y-104267452D01*
X129717335Y-104181206D01*
X129717328Y-104181202D01*
X129582486Y-104130910D01*
X129582485Y-104130909D01*
X129582483Y-104130909D01*
X129522873Y-104124500D01*
X129522863Y-104124500D01*
X129027129Y-104124500D01*
X129027123Y-104124501D01*
X128967516Y-104130908D01*
X128832671Y-104181202D01*
X128832664Y-104181206D01*
X128710355Y-104272768D01*
X128708195Y-104269882D01*
X128661828Y-104295132D01*
X128619424Y-104296875D01*
X128600001Y-104294318D01*
X128599998Y-104294318D01*
X128443239Y-104314955D01*
X128443237Y-104314956D01*
X128297158Y-104375464D01*
X128262132Y-104402340D01*
X128196962Y-104427533D01*
X128128518Y-104413494D01*
X128088273Y-104379451D01*
X128004866Y-104270752D01*
X127879425Y-104174498D01*
X127876827Y-104173422D01*
X127733346Y-104113990D01*
X127733344Y-104113989D01*
X127576585Y-104093352D01*
X127576583Y-104093352D01*
X127419823Y-104113989D01*
X127419821Y-104113990D01*
X127273744Y-104174497D01*
X127265001Y-104181206D01*
X127148302Y-104270752D01*
X127148300Y-104270754D01*
X127144232Y-104273876D01*
X127079062Y-104299070D01*
X127068745Y-104299500D01*
X124217254Y-104299500D01*
X124150215Y-104279815D01*
X124129573Y-104263181D01*
X122515088Y-102648695D01*
X122481603Y-102587372D01*
X122486587Y-102517680D01*
X122504389Y-102485533D01*
X122578811Y-102388545D01*
X122639319Y-102242466D01*
X122655827Y-102117076D01*
X122659957Y-102085705D01*
X122659957Y-102085702D01*
X122639319Y-101928943D01*
X122639319Y-101928942D01*
X122578811Y-101782863D01*
X122482557Y-101657422D01*
X122357116Y-101561168D01*
X122211037Y-101500660D01*
X122211035Y-101500659D01*
X122054276Y-101480022D01*
X122054274Y-101480022D01*
X121897514Y-101500659D01*
X121897512Y-101500660D01*
X121751435Y-101561167D01*
X121668348Y-101624922D01*
X121625993Y-101657422D01*
X121580769Y-101716360D01*
X121578991Y-101718677D01*
X121522562Y-101759879D01*
X121464363Y-101763346D01*
X121464012Y-101766017D01*
X121455954Y-101764956D01*
X121376297Y-101754469D01*
X121299193Y-101744318D01*
X121299191Y-101744318D01*
X121142431Y-101764955D01*
X121142429Y-101764956D01*
X120996352Y-101825463D01*
X120870910Y-101921718D01*
X120774655Y-102047160D01*
X120714148Y-102193237D01*
X120714148Y-102193238D01*
X120697907Y-102316598D01*
X120669640Y-102380494D01*
X120611316Y-102418965D01*
X120541451Y-102419796D01*
X120527516Y-102414973D01*
X120406765Y-102364957D01*
X120406760Y-102364955D01*
X120250001Y-102344318D01*
X120249999Y-102344318D01*
X120093239Y-102364955D01*
X120093237Y-102364956D01*
X119947160Y-102425463D01*
X119821718Y-102521718D01*
X119725463Y-102647160D01*
X119664956Y-102793237D01*
X119664955Y-102793239D01*
X119644318Y-102949998D01*
X116240659Y-102949998D01*
X118553838Y-100636819D01*
X118615161Y-100603334D01*
X118641519Y-100600500D01*
X122658481Y-100600500D01*
X122725520Y-100620185D01*
X122746162Y-100636819D01*
X123655884Y-101546540D01*
X123706527Y-101597183D01*
X123753457Y-101644113D01*
X123868180Y-101720769D01*
X123868193Y-101720776D01*
X123925029Y-101744318D01*
X123960349Y-101758948D01*
X123995669Y-101773578D01*
X123995672Y-101773578D01*
X123995677Y-101773580D01*
X124022543Y-101778923D01*
X124022549Y-101778924D01*
X124022589Y-101778932D01*
X124099093Y-101794150D01*
X124131004Y-101800498D01*
X124131005Y-101800498D01*
X126368998Y-101800498D01*
X126477459Y-101778923D01*
X126504330Y-101773578D01*
X126602712Y-101732827D01*
X126631809Y-101720775D01*
X126631810Y-101720774D01*
X126631813Y-101720773D01*
X126746545Y-101644112D01*
X126759989Y-101630667D01*
X126821309Y-101597183D01*
X126891001Y-101602165D01*
X126946936Y-101644035D01*
X126962232Y-101670896D01*
X126975462Y-101702838D01*
X126975463Y-101702840D01*
X126975464Y-101702841D01*
X127071718Y-101828282D01*
X127197159Y-101924536D01*
X127343238Y-101985044D01*
X127365724Y-101988004D01*
X127429621Y-102016270D01*
X127468093Y-102074594D01*
X127472479Y-102094756D01*
X127474222Y-102107994D01*
X127480643Y-102156762D01*
X127541151Y-102302841D01*
X127637405Y-102428282D01*
X127762846Y-102524536D01*
X127908925Y-102585044D01*
X127934280Y-102588382D01*
X128065686Y-102605682D01*
X128065687Y-102605682D01*
X128065688Y-102605682D01*
X128117941Y-102598802D01*
X128222449Y-102585044D01*
X128368528Y-102524536D01*
X128493969Y-102428282D01*
X128493970Y-102428279D01*
X128496780Y-102426124D01*
X128561950Y-102400930D01*
X128572267Y-102400500D01*
X131350219Y-102400500D01*
X131417258Y-102420185D01*
X131463013Y-102472989D01*
X131464780Y-102477048D01*
X131475462Y-102502838D01*
X131475463Y-102502839D01*
X131475464Y-102502841D01*
X131571718Y-102628282D01*
X131697159Y-102724536D01*
X131843238Y-102785044D01*
X131905478Y-102793238D01*
X131999999Y-102805682D01*
X132000000Y-102805682D01*
X132000001Y-102805682D01*
X132094514Y-102793239D01*
X132156762Y-102785044D01*
X132302841Y-102724536D01*
X132428282Y-102628282D01*
X132524536Y-102502841D01*
X132585044Y-102356762D01*
X132605682Y-102200000D01*
X132602761Y-102177815D01*
X132585044Y-102043239D01*
X132585044Y-102043238D01*
X132524536Y-101897159D01*
X132524535Y-101897158D01*
X132524535Y-101897157D01*
X132450903Y-101801198D01*
X132425709Y-101736029D01*
X132434718Y-101678260D01*
X132448894Y-101644035D01*
X132467058Y-101600183D01*
X132510897Y-101545781D01*
X132577191Y-101523716D01*
X132644891Y-101540995D01*
X132669299Y-101559956D01*
X132842170Y-101732827D01*
X132875655Y-101794150D01*
X132878489Y-101820508D01*
X132878489Y-102931006D01*
X132878489Y-103068994D01*
X132878489Y-103068996D01*
X132878488Y-103068996D01*
X132905407Y-103204322D01*
X132905410Y-103204332D01*
X132958211Y-103331807D01*
X132989264Y-103378282D01*
X133034875Y-103446543D01*
X133063181Y-103474849D01*
X133096666Y-103536170D01*
X133099500Y-103562530D01*
X133099500Y-105578842D01*
X133079815Y-105645881D01*
X133063181Y-105666523D01*
X132976250Y-105753453D01*
X132976249Y-105753454D01*
X132899584Y-105868192D01*
X132846783Y-105995667D01*
X132846780Y-105995677D01*
X132819862Y-106131003D01*
X132819862Y-106131006D01*
X132819862Y-106268994D01*
X132819862Y-106268996D01*
X132819861Y-106268996D01*
X132846780Y-106404322D01*
X132846783Y-106404332D01*
X132899584Y-106531807D01*
X132976249Y-106646545D01*
X133073816Y-106744112D01*
X133188554Y-106820777D01*
X133316029Y-106873578D01*
X133316034Y-106873580D01*
X133316038Y-106873580D01*
X133316039Y-106873581D01*
X133451365Y-106900500D01*
X133451368Y-106900500D01*
X133589358Y-106900500D01*
X133680402Y-106882389D01*
X133724690Y-106873580D01*
X133788431Y-106847177D01*
X133852169Y-106820777D01*
X133852170Y-106820776D01*
X133852173Y-106820775D01*
X133966905Y-106744114D01*
X134344114Y-106366905D01*
X134420775Y-106252173D01*
X134422084Y-106249014D01*
X134473578Y-106124694D01*
X134473580Y-106124690D01*
X134492991Y-106027105D01*
X134500500Y-105989358D01*
X134500500Y-103152017D01*
X134495768Y-103128231D01*
X134495767Y-103128230D01*
X134495767Y-103128226D01*
X134473580Y-103016683D01*
X134445960Y-102950001D01*
X134420777Y-102889203D01*
X134344112Y-102774465D01*
X134315808Y-102746161D01*
X134282323Y-102684838D01*
X134279489Y-102658480D01*
X134279489Y-101409993D01*
X134252570Y-101274666D01*
X134252569Y-101274665D01*
X134252569Y-101274661D01*
X134252567Y-101274656D01*
X134199767Y-101147184D01*
X134199759Y-101147170D01*
X134182123Y-101120776D01*
X134182122Y-101120775D01*
X134123101Y-101032443D01*
X134123098Y-101032440D01*
X133678338Y-100587681D01*
X133644853Y-100526358D01*
X133649837Y-100456667D01*
X133678338Y-100412319D01*
X134123101Y-99967556D01*
X134123103Y-99967554D01*
X134199764Y-99852822D01*
X134208352Y-99832090D01*
X134252567Y-99725343D01*
X134252569Y-99725339D01*
X134279489Y-99590004D01*
X134279489Y-99452017D01*
X134279489Y-99402018D01*
X134279489Y-99402015D01*
X134252570Y-99266688D01*
X134252569Y-99266687D01*
X134252569Y-99266683D01*
X134232734Y-99218796D01*
X134199767Y-99139206D01*
X134199760Y-99139193D01*
X134123103Y-99024469D01*
X134123100Y-99024465D01*
X134025534Y-98926899D01*
X134025530Y-98926896D01*
X133910806Y-98850239D01*
X133910793Y-98850232D01*
X133783321Y-98797432D01*
X133783311Y-98797429D01*
X133647984Y-98770511D01*
X133647982Y-98770511D01*
X133509996Y-98770511D01*
X133509994Y-98770511D01*
X133374666Y-98797429D01*
X133374656Y-98797432D01*
X133247184Y-98850232D01*
X133247171Y-98850239D01*
X133132447Y-98926896D01*
X133132443Y-98926899D01*
X133034877Y-99024465D01*
X133034874Y-99024469D01*
X132958213Y-99139200D01*
X132955345Y-99144567D01*
X132954367Y-99144044D01*
X132932338Y-99177003D01*
X132346162Y-99763181D01*
X132284839Y-99796666D01*
X132258481Y-99799500D01*
X126831003Y-99799500D01*
X126722590Y-99821065D01*
X126722589Y-99821065D01*
X126706379Y-99824289D01*
X126695669Y-99826420D01*
X126670244Y-99836952D01*
X126670242Y-99836953D01*
X126624503Y-99855898D01*
X126555034Y-99863365D01*
X126492555Y-99832090D01*
X126462491Y-99788789D01*
X126424536Y-99697158D01*
X126424536Y-99697157D01*
X126328282Y-99571716D01*
X126202841Y-99475462D01*
X126056762Y-99414954D01*
X126056760Y-99414953D01*
X125900001Y-99394316D01*
X125899999Y-99394316D01*
X125820089Y-99404836D01*
X125751054Y-99394070D01*
X125698798Y-99347690D01*
X125689343Y-99329350D01*
X125676009Y-99297160D01*
X125676009Y-99297159D01*
X125579755Y-99171718D01*
X125454314Y-99075464D01*
X125420324Y-99061385D01*
X125308235Y-99014956D01*
X125308233Y-99014955D01*
X125151475Y-98994318D01*
X125151471Y-98994318D01*
X125131895Y-98996895D01*
X125062860Y-98986129D01*
X125028030Y-98961637D01*
X123845915Y-97779522D01*
X123845913Y-97779520D01*
X123763411Y-97731887D01*
X123715196Y-97681319D01*
X123701974Y-97612712D01*
X123727942Y-97547847D01*
X123784857Y-97507320D01*
X123825412Y-97500500D01*
X128847981Y-97500500D01*
X128915020Y-97520185D01*
G37*
%TD.AperFunction*%
%TA.AperFunction,Conductor*%
G36*
X117774489Y-97520185D02*
G01*
X117820244Y-97572989D01*
X117830188Y-97642147D01*
X117816808Y-97682953D01*
X117794396Y-97724881D01*
X117738614Y-97908770D01*
X117719780Y-98100000D01*
X117738614Y-98291229D01*
X117794396Y-98475118D01*
X117884973Y-98644575D01*
X117884977Y-98644582D01*
X118006879Y-98793120D01*
X118155417Y-98915022D01*
X118155424Y-98915026D01*
X118258157Y-98969938D01*
X118308001Y-99018900D01*
X118323462Y-99087037D01*
X118299631Y-99152717D01*
X118244073Y-99195086D01*
X118223896Y-99200913D01*
X118095677Y-99226418D01*
X118095667Y-99226421D01*
X117968192Y-99279222D01*
X117853454Y-99355887D01*
X114967795Y-102241546D01*
X114906472Y-102275031D01*
X114836780Y-102270047D01*
X114826562Y-102265303D01*
X114681561Y-102208122D01*
X114635926Y-102202642D01*
X114593102Y-102197500D01*
X114593097Y-102197500D01*
X113724500Y-102197500D01*
X113657461Y-102177815D01*
X113611706Y-102125011D01*
X113600500Y-102073500D01*
X113600500Y-101906500D01*
X113620185Y-101839461D01*
X113672989Y-101793706D01*
X113724500Y-101782500D01*
X114593097Y-101782500D01*
X114593102Y-101782500D01*
X114681564Y-101771877D01*
X114822342Y-101716361D01*
X114942922Y-101624922D01*
X115034361Y-101504342D01*
X115089877Y-101363564D01*
X115100500Y-101275102D01*
X115100500Y-100164898D01*
X115089877Y-100076436D01*
X115034361Y-99935658D01*
X115034360Y-99935657D01*
X115034360Y-99935656D01*
X114942922Y-99815077D01*
X114822343Y-99723639D01*
X114681561Y-99668122D01*
X114635926Y-99662642D01*
X114593102Y-99657500D01*
X114593097Y-99657500D01*
X113724500Y-99657500D01*
X113657461Y-99637815D01*
X113611706Y-99585011D01*
X113600500Y-99533500D01*
X113600500Y-97624500D01*
X113620185Y-97557461D01*
X113672989Y-97511706D01*
X113724500Y-97500500D01*
X117707450Y-97500500D01*
X117774489Y-97520185D01*
G37*
%TD.AperFunction*%
%TD*%
M02*
