%TF.GenerationSoftware,KiCad,Pcbnew,8.0.4-8.0.4-0~ubuntu20.04.1*%
%TF.CreationDate,2024-08-05T10:16:11+09:00*%
%TF.ProjectId,pcb_blheli_s,7063625f-626c-4686-956c-695f732e6b69,rev?*%
%TF.SameCoordinates,Original*%
%TF.FileFunction,Paste,Top*%
%TF.FilePolarity,Positive*%
%FSLAX46Y46*%
G04 Gerber Fmt 4.6, Leading zero omitted, Abs format (unit mm)*
G04 Created by KiCad (PCBNEW 8.0.4-8.0.4-0~ubuntu20.04.1) date 2024-08-05 10:16:11*
%MOMM*%
%LPD*%
G01*
G04 APERTURE LIST*
G04 Aperture macros list*
%AMRoundRect*
0 Rectangle with rounded corners*
0 $1 Rounding radius*
0 $2 $3 $4 $5 $6 $7 $8 $9 X,Y pos of 4 corners*
0 Add a 4 corners polygon primitive as box body*
4,1,4,$2,$3,$4,$5,$6,$7,$8,$9,$2,$3,0*
0 Add four circle primitives for the rounded corners*
1,1,$1+$1,$2,$3*
1,1,$1+$1,$4,$5*
1,1,$1+$1,$6,$7*
1,1,$1+$1,$8,$9*
0 Add four rect primitives between the rounded corners*
20,1,$1+$1,$2,$3,$4,$5,0*
20,1,$1+$1,$4,$5,$6,$7,0*
20,1,$1+$1,$6,$7,$8,$9,0*
20,1,$1+$1,$8,$9,$2,$3,0*%
G04 Aperture macros list end*
%ADD10R,0.900000X0.300000*%
%ADD11R,0.300000X0.900000*%
%ADD12R,1.800000X1.800000*%
%ADD13RoundRect,0.225000X-0.225000X-0.250000X0.225000X-0.250000X0.225000X0.250000X-0.225000X0.250000X0*%
%ADD14RoundRect,0.150000X0.150000X-0.587500X0.150000X0.587500X-0.150000X0.587500X-0.150000X-0.587500X0*%
%ADD15RoundRect,0.200000X-0.200000X-0.275000X0.200000X-0.275000X0.200000X0.275000X-0.200000X0.275000X0*%
%ADD16RoundRect,0.225000X-0.250000X0.225000X-0.250000X-0.225000X0.250000X-0.225000X0.250000X0.225000X0*%
%ADD17RoundRect,0.225000X0.225000X0.250000X-0.225000X0.250000X-0.225000X-0.250000X0.225000X-0.250000X0*%
%ADD18RoundRect,0.200000X0.200000X0.275000X-0.200000X0.275000X-0.200000X-0.275000X0.200000X-0.275000X0*%
%ADD19R,1.200000X0.600000*%
G04 APERTURE END LIST*
D10*
%TO.C,IC1*%
X123000000Y-100500000D03*
X123000000Y-101000000D03*
X123000000Y-101500000D03*
X123000000Y-102000000D03*
X123000000Y-102500000D03*
X123000000Y-103000000D03*
D11*
X123800000Y-103300000D03*
X124300000Y-103300000D03*
X124800000Y-103300000D03*
X125300000Y-103300000D03*
D10*
X126100000Y-103000000D03*
X126100000Y-102500000D03*
X126100000Y-102000000D03*
X126100000Y-101500000D03*
X126100000Y-101000000D03*
X126100000Y-100500000D03*
D11*
X125300000Y-100200000D03*
X124800000Y-100200000D03*
X124300000Y-100200000D03*
X123800000Y-100200000D03*
D12*
X124550000Y-101750000D03*
%TD*%
D13*
%TO.C,C4*%
X119475000Y-98500000D03*
X121025000Y-98500000D03*
%TD*%
D14*
%TO.C,Q6*%
X135850000Y-108337500D03*
X137750000Y-108337500D03*
X136800000Y-106462500D03*
%TD*%
D15*
%TO.C,R6*%
X127975000Y-105500000D03*
X129625000Y-105500000D03*
%TD*%
%TO.C,R8*%
X127975000Y-107200000D03*
X129625000Y-107200000D03*
%TD*%
D16*
%TO.C,C2*%
X116000000Y-102475000D03*
X116000000Y-104025000D03*
%TD*%
D13*
%TO.C,C1*%
X119475000Y-100250000D03*
X121025000Y-100250000D03*
%TD*%
D17*
%TO.C,C3*%
X119175000Y-105700000D03*
X117625000Y-105700000D03*
%TD*%
D18*
%TO.C,R3*%
X129625000Y-100250000D03*
X127975000Y-100250000D03*
%TD*%
%TO.C,R5*%
X129625000Y-102000000D03*
X127975000Y-102000000D03*
%TD*%
D19*
%TO.C,IC2*%
X117750000Y-102050000D03*
X117750000Y-103000000D03*
X117750000Y-103950000D03*
X120250000Y-103950000D03*
X120250000Y-102050000D03*
%TD*%
D18*
%TO.C,R7*%
X129625000Y-103700000D03*
X127975000Y-103700000D03*
%TD*%
D14*
%TO.C,Q4*%
X135850000Y-104437500D03*
X137750000Y-104437500D03*
X136800000Y-102562500D03*
%TD*%
%TO.C,Q1*%
X132350000Y-100537500D03*
X134250000Y-100537500D03*
X133300000Y-98662500D03*
%TD*%
%TO.C,Q3*%
X132350000Y-104437500D03*
X134250000Y-104437500D03*
X133300000Y-102562500D03*
%TD*%
D15*
%TO.C,R4*%
X127975000Y-98500000D03*
X129625000Y-98500000D03*
%TD*%
D18*
%TO.C,R2*%
X117825000Y-98500000D03*
X116175000Y-98500000D03*
%TD*%
D14*
%TO.C,Q5*%
X132350000Y-108337500D03*
X134250000Y-108337500D03*
X133300000Y-106462500D03*
%TD*%
%TO.C,Q2*%
X135850000Y-100537500D03*
X137750000Y-100537500D03*
X136800000Y-98662500D03*
%TD*%
D18*
%TO.C,R1*%
X122825000Y-105750000D03*
X121175000Y-105750000D03*
%TD*%
M02*
