%TF.GenerationSoftware,KiCad,Pcbnew,8.0.4-8.0.4-0~ubuntu20.04.1*%
%TF.CreationDate,2024-08-22T16:05:33+09:00*%
%TF.ProjectId,pcb_blheli_s,7063625f-626c-4686-956c-695f732e6b69,rev?*%
%TF.SameCoordinates,Original*%
%TF.FileFunction,Copper,L1,Top*%
%TF.FilePolarity,Positive*%
%FSLAX46Y46*%
G04 Gerber Fmt 4.6, Leading zero omitted, Abs format (unit mm)*
G04 Created by KiCad (PCBNEW 8.0.4-8.0.4-0~ubuntu20.04.1) date 2024-08-22 16:05:33*
%MOMM*%
%LPD*%
G01*
G04 APERTURE LIST*
G04 Aperture macros list*
%AMRoundRect*
0 Rectangle with rounded corners*
0 $1 Rounding radius*
0 $2 $3 $4 $5 $6 $7 $8 $9 X,Y pos of 4 corners*
0 Add a 4 corners polygon primitive as box body*
4,1,4,$2,$3,$4,$5,$6,$7,$8,$9,$2,$3,0*
0 Add four circle primitives for the rounded corners*
1,1,$1+$1,$2,$3*
1,1,$1+$1,$4,$5*
1,1,$1+$1,$6,$7*
1,1,$1+$1,$8,$9*
0 Add four rect primitives between the rounded corners*
20,1,$1+$1,$2,$3,$4,$5,0*
20,1,$1+$1,$4,$5,$6,$7,0*
20,1,$1+$1,$6,$7,$8,$9,0*
20,1,$1+$1,$8,$9,$2,$3,0*%
G04 Aperture macros list end*
%TA.AperFunction,SMDPad,CuDef*%
%ADD10RoundRect,0.225000X-0.225000X-0.250000X0.225000X-0.250000X0.225000X0.250000X-0.225000X0.250000X0*%
%TD*%
%TA.AperFunction,CastellatedPad*%
%ADD11RoundRect,0.250000X-1.250000X-0.512000X1.250000X-0.512000X1.250000X0.512000X-1.250000X0.512000X0*%
%TD*%
%TA.AperFunction,ComponentPad*%
%ADD12RoundRect,0.250000X-1.250000X-0.512000X1.250000X-0.512000X1.250000X0.512000X-1.250000X0.512000X0*%
%TD*%
%TA.AperFunction,SMDPad,CuDef*%
%ADD13RoundRect,0.200000X-0.200000X-0.275000X0.200000X-0.275000X0.200000X0.275000X-0.200000X0.275000X0*%
%TD*%
%TA.AperFunction,SMDPad,CuDef*%
%ADD14R,0.600000X1.300000*%
%TD*%
%TA.AperFunction,SMDPad,CuDef*%
%ADD15RoundRect,0.225000X-0.250000X0.225000X-0.250000X-0.225000X0.250000X-0.225000X0.250000X0.225000X0*%
%TD*%
%TA.AperFunction,SMDPad,CuDef*%
%ADD16RoundRect,0.225000X0.225000X0.250000X-0.225000X0.250000X-0.225000X-0.250000X0.225000X-0.250000X0*%
%TD*%
%TA.AperFunction,SMDPad,CuDef*%
%ADD17R,0.900000X0.800000*%
%TD*%
%TA.AperFunction,SMDPad,CuDef*%
%ADD18R,0.900000X0.300000*%
%TD*%
%TA.AperFunction,SMDPad,CuDef*%
%ADD19R,0.300000X0.900000*%
%TD*%
%TA.AperFunction,SMDPad,CuDef*%
%ADD20R,1.800000X1.800000*%
%TD*%
%TA.AperFunction,SMDPad,CuDef*%
%ADD21RoundRect,0.200000X0.200000X0.275000X-0.200000X0.275000X-0.200000X-0.275000X0.200000X-0.275000X0*%
%TD*%
%TA.AperFunction,SMDPad,CuDef*%
%ADD22R,1.200000X0.600000*%
%TD*%
%TA.AperFunction,ComponentPad*%
%ADD23R,1.000000X1.000000*%
%TD*%
%TA.AperFunction,ComponentPad*%
%ADD24O,1.000000X1.000000*%
%TD*%
%TA.AperFunction,SMDPad,CuDef*%
%ADD25RoundRect,0.150000X0.150000X-0.587500X0.150000X0.587500X-0.150000X0.587500X-0.150000X-0.587500X0*%
%TD*%
%TA.AperFunction,ComponentPad*%
%ADD26R,1.350000X1.350000*%
%TD*%
%TA.AperFunction,ComponentPad*%
%ADD27O,1.350000X1.350000*%
%TD*%
%TA.AperFunction,ViaPad*%
%ADD28C,0.600000*%
%TD*%
%TA.AperFunction,Conductor*%
%ADD29C,0.200000*%
%TD*%
%TA.AperFunction,Conductor*%
%ADD30C,0.400000*%
%TD*%
%TA.AperFunction,Conductor*%
%ADD31C,0.300000*%
%TD*%
%TA.AperFunction,Conductor*%
%ADD32C,0.500000*%
%TD*%
G04 APERTURE END LIST*
D10*
%TO.P,C4,1*%
%TO.N,+3.3V*%
X118825000Y-100400000D03*
%TO.P,C4,2*%
%TO.N,GND*%
X120375000Y-100400000D03*
%TD*%
D11*
%TO.P,J1,1,Pin_1*%
%TO.N,/RC_IN*%
X113300000Y-100720000D03*
D12*
%TO.P,J1,2,Pin_2*%
%TO.N,VDC*%
X113300000Y-103260000D03*
%TO.P,J1,3,Pin_3*%
%TO.N,GND*%
X113300000Y-105800000D03*
%TD*%
D13*
%TO.P,R6,1*%
%TO.N,/MUX_B*%
X129225000Y-105450000D03*
%TO.P,R6,2*%
%TO.N,Net-(J3-Pin_2)*%
X130875000Y-105450000D03*
%TD*%
%TO.P,R8,1*%
%TO.N,/MUX_C*%
X129225000Y-107100000D03*
%TO.P,R8,2*%
%TO.N,Net-(J3-Pin_3)*%
X130875000Y-107100000D03*
%TD*%
D14*
%TO.P,Q2,1,G*%
%TO.N,/COM_A*%
X135850000Y-100800000D03*
%TO.P,Q2,2,S*%
%TO.N,VDC*%
X137750000Y-100800000D03*
%TO.P,Q2,3,D*%
%TO.N,Net-(J3-Pin_1)*%
X136800000Y-98700000D03*
%TD*%
D15*
%TO.P,C2,1*%
%TO.N,VDC*%
X115900000Y-103325000D03*
%TO.P,C2,2*%
%TO.N,GND*%
X115900000Y-104875000D03*
%TD*%
D10*
%TO.P,C1,1*%
%TO.N,+3.3V*%
X118825000Y-101900000D03*
%TO.P,C1,2*%
%TO.N,GND*%
X120375000Y-101900000D03*
%TD*%
D16*
%TO.P,C3,1*%
%TO.N,Net-(IC2-NR)*%
X119875000Y-107300000D03*
%TO.P,C3,2*%
%TO.N,GND*%
X118325000Y-107300000D03*
%TD*%
D17*
%TO.P,IC1,1,P0.1*%
%TO.N,/MUX_C*%
X123050000Y-100900000D03*
D18*
%TO.P,IC1,2,P0.0*%
%TO.N,/MUX_B*%
X123050000Y-101650000D03*
%TO.P,IC1,3,GND_1*%
%TO.N,GND*%
X123050000Y-102150000D03*
%TO.P,IC1,4,VDD*%
%TO.N,+3.3V*%
X123050000Y-102650000D03*
%TO.P,IC1,5,RSTB_/_C2CK*%
%TO.N,/C2CK*%
X123050000Y-103150000D03*
D17*
%TO.P,IC1,6,P2.0_/_C2D*%
%TO.N,/C2D*%
X123050000Y-103900000D03*
D19*
%TO.P,IC1,7,P1.6*%
%TO.N,unconnected-(IC1-P1.6-Pad7)*%
X123850000Y-103950000D03*
%TO.P,IC1,8,P1.5*%
%TO.N,/COM_C*%
X124350000Y-103950000D03*
%TO.P,IC1,9,P1.4*%
%TO.N,/PWM_C*%
X124850000Y-103950000D03*
%TO.P,IC1,10,P1.3*%
%TO.N,/COM_B*%
X125350000Y-103950000D03*
D17*
%TO.P,IC1,11,P1.2*%
%TO.N,/PWM_B*%
X126150000Y-103900000D03*
D18*
%TO.P,IC1,12,GND_2*%
%TO.N,GND*%
X126150000Y-103150000D03*
%TO.P,IC1,13,P1.1*%
%TO.N,/COM_A*%
X126150000Y-102650000D03*
%TO.P,IC1,14,P1.0*%
%TO.N,/PWM_A*%
X126150000Y-102150000D03*
%TO.P,IC1,15,P0.7*%
%TO.N,unconnected-(IC1-P0.7-Pad15)*%
X126150000Y-101650000D03*
D17*
%TO.P,IC1,16,P0.6*%
%TO.N,unconnected-(IC1-P0.6-Pad16)*%
X126150000Y-100900000D03*
D19*
%TO.P,IC1,17,P0.5*%
%TO.N,/RX0*%
X125350000Y-100850000D03*
%TO.P,IC1,18,P0.4*%
%TO.N,/TX0*%
X124850000Y-100850000D03*
%TO.P,IC1,19,P0.3*%
%TO.N,/COMP_COM*%
X124350000Y-100850000D03*
%TO.P,IC1,20,P0.2*%
%TO.N,/MUX_A*%
X123850000Y-100850000D03*
D20*
%TO.P,IC1,21,GND_3*%
%TO.N,GND*%
X124600000Y-102400000D03*
%TD*%
D21*
%TO.P,R3,1*%
%TO.N,Net-(J3-Pin_1)*%
X130875000Y-100600000D03*
%TO.P,R3,2*%
%TO.N,/COMP_COM*%
X129225000Y-100600000D03*
%TD*%
%TO.P,R5,1*%
%TO.N,Net-(J3-Pin_2)*%
X130875000Y-102100000D03*
%TO.P,R5,2*%
%TO.N,/COMP_COM*%
X129225000Y-102100000D03*
%TD*%
D22*
%TO.P,IC2,1,VIN*%
%TO.N,VDC*%
X117550000Y-103550000D03*
%TO.P,IC2,2,GND*%
%TO.N,GND*%
X117550000Y-104500000D03*
%TO.P,IC2,3,ENABLE*%
%TO.N,VDC*%
X117550000Y-105450000D03*
%TO.P,IC2,4,NR*%
%TO.N,Net-(IC2-NR)*%
X120050000Y-105450000D03*
%TO.P,IC2,5,VOUT*%
%TO.N,+3.3V*%
X120050000Y-103550000D03*
%TD*%
D21*
%TO.P,R7,1*%
%TO.N,Net-(J3-Pin_3)*%
X130875000Y-103600000D03*
%TO.P,R7,2*%
%TO.N,/COMP_COM*%
X129225000Y-103600000D03*
%TD*%
D23*
%TO.P,J2,1,Pin_1*%
%TO.N,GND*%
X121900000Y-108600000D03*
D24*
%TO.P,J2,2,Pin_2*%
%TO.N,+3.3V*%
X123170000Y-108600000D03*
%TO.P,J2,3,Pin_3*%
%TO.N,/C2CK*%
X124440000Y-108600000D03*
%TO.P,J2,4,Pin_4*%
%TO.N,/C2D*%
X125710000Y-108600000D03*
%TD*%
D25*
%TO.P,Q1,1,G*%
%TO.N,/PWM_A*%
X132350000Y-100637500D03*
%TO.P,Q1,2,S*%
%TO.N,GND*%
X134250000Y-100637500D03*
%TO.P,Q1,3,D*%
%TO.N,Net-(J3-Pin_1)*%
X133300000Y-98762500D03*
%TD*%
D14*
%TO.P,Q4,1,G*%
%TO.N,/COM_B*%
X135850000Y-104750000D03*
%TO.P,Q4,2,S*%
%TO.N,VDC*%
X137750000Y-104750000D03*
%TO.P,Q4,3,D*%
%TO.N,Net-(J3-Pin_2)*%
X136800000Y-102650000D03*
%TD*%
D26*
%TO.P,J3,1,Pin_1*%
%TO.N,Net-(J3-Pin_1)*%
X140100000Y-101000000D03*
D27*
%TO.P,J3,2,Pin_2*%
%TO.N,Net-(J3-Pin_2)*%
X140100000Y-103000000D03*
%TO.P,J3,3,Pin_3*%
%TO.N,Net-(J3-Pin_3)*%
X140100000Y-105000000D03*
%TD*%
D25*
%TO.P,Q3,1,G*%
%TO.N,/PWM_B*%
X132350000Y-104637500D03*
%TO.P,Q3,2,S*%
%TO.N,GND*%
X134250000Y-104637500D03*
%TO.P,Q3,3,D*%
%TO.N,Net-(J3-Pin_2)*%
X133300000Y-102762500D03*
%TD*%
D13*
%TO.P,R4,1*%
%TO.N,/MUX_A*%
X129225000Y-99100000D03*
%TO.P,R4,2*%
%TO.N,Net-(J3-Pin_1)*%
X130875000Y-99100000D03*
%TD*%
D21*
%TO.P,R2,1*%
%TO.N,/RX0*%
X117425000Y-100400000D03*
%TO.P,R2,2*%
%TO.N,/RC_IN*%
X115775000Y-100400000D03*
%TD*%
D14*
%TO.P,Q6,1,G*%
%TO.N,/COM_C*%
X135850000Y-108700000D03*
%TO.P,Q6,2,S*%
%TO.N,VDC*%
X137750000Y-108700000D03*
%TO.P,Q6,3,D*%
%TO.N,Net-(J3-Pin_3)*%
X136800000Y-106600000D03*
%TD*%
D25*
%TO.P,Q5,1,G*%
%TO.N,/PWM_C*%
X132350000Y-108537500D03*
%TO.P,Q5,2,S*%
%TO.N,GND*%
X134250000Y-108537500D03*
%TO.P,Q5,3,D*%
%TO.N,Net-(J3-Pin_3)*%
X133300000Y-106662500D03*
%TD*%
D26*
%TO.P,J4,1,Pin_1*%
%TO.N,/TX0*%
X120700000Y-98100000D03*
D27*
%TO.P,J4,2,Pin_2*%
%TO.N,/RX0*%
X118700000Y-98100000D03*
%TO.P,J4,3,Pin_3*%
%TO.N,GND*%
X116700000Y-98100000D03*
%TD*%
D21*
%TO.P,R1,1*%
%TO.N,/C2CK*%
X123225000Y-106200000D03*
%TO.P,R1,2*%
%TO.N,+3.3V*%
X121575000Y-106200000D03*
%TD*%
D28*
%TO.N,/MUX_C*%
X128700000Y-107100000D03*
%TO.N,GND*%
X130200000Y-109200000D03*
X133500000Y-100600000D03*
X127900000Y-97800000D03*
X133400000Y-104200000D03*
X117700000Y-101800000D03*
X121200000Y-107600000D03*
X128000000Y-103000000D03*
X134300000Y-108700000D03*
X133500000Y-108700000D03*
X132100000Y-98400000D03*
X134250000Y-104637500D03*
X120286625Y-101050000D03*
X134900000Y-100600000D03*
X134200000Y-100600000D03*
X128000000Y-103800000D03*
X134300000Y-103600000D03*
X128000000Y-109200000D03*
X134300000Y-107700000D03*
%TO.N,+3.3V*%
X121500000Y-105300000D03*
%TO.N,VDC*%
X137750000Y-104750000D03*
X137750000Y-100800000D03*
X137750000Y-108700000D03*
%TO.N,/MUX_A*%
X129225000Y-98500000D03*
%TO.N,/COM_B*%
X135300000Y-105800000D03*
X127155554Y-106092809D03*
%TO.N,/PWM_B*%
X127048528Y-105300000D03*
X131759173Y-105873513D03*
%TO.N,/MUX_B*%
X122054275Y-102085704D03*
X128600000Y-104900000D03*
X127576584Y-104699034D03*
%TO.N,/PWM_A*%
X131900000Y-101400000D03*
X127500000Y-101400000D03*
%TO.N,/TX0*%
X125151473Y-99600000D03*
%TO.N,/MUX_C*%
X125775735Y-105724265D03*
X121299192Y-102350000D03*
%TO.N,/COM_A*%
X128065687Y-102000000D03*
X132000000Y-102200000D03*
%TO.N,/RX0*%
X125900000Y-99999998D03*
%TD*%
D29*
%TO.N,/MUX_C*%
X127314216Y-107100000D02*
X128700000Y-107100000D01*
X128700000Y-107100000D02*
X129225000Y-107100000D01*
D30*
%TO.N,GND*%
X134250000Y-108537500D02*
X134300000Y-108700000D01*
D31*
X124350000Y-102150000D02*
X124600000Y-102400000D01*
D30*
X134250000Y-100637500D02*
X134200000Y-100600000D01*
X134300000Y-108700000D02*
X134250000Y-108250000D01*
D31*
X123050000Y-102150000D02*
X124350000Y-102150000D01*
D30*
X134200000Y-100600000D02*
X134250000Y-100450000D01*
D31*
X126150000Y-103150000D02*
X125350000Y-103150000D01*
X125350000Y-103150000D02*
X124600000Y-102400000D01*
X127850000Y-103150000D02*
X126150000Y-103150000D01*
X120286625Y-101050000D02*
X120286625Y-101811625D01*
X120286625Y-101811625D02*
X120375000Y-101900000D01*
X128000000Y-103000000D02*
X127850000Y-103150000D01*
%TO.N,+3.3V*%
X121500000Y-103900000D02*
X121150000Y-103550000D01*
D30*
X118700000Y-100525000D02*
X118700000Y-101775000D01*
X118825000Y-100400000D02*
X118700000Y-100525000D01*
D31*
X121575000Y-106200000D02*
X123170000Y-107795000D01*
X121500000Y-105300000D02*
X121500000Y-106125000D01*
X123170000Y-107795000D02*
X123170000Y-108600000D01*
D29*
X121300000Y-103600000D02*
X121300000Y-103700000D01*
D31*
X121500000Y-105300000D02*
X121500000Y-103900000D01*
X121150000Y-103550000D02*
X120050000Y-103550000D01*
D29*
X122214296Y-102685704D02*
X123014296Y-102685704D01*
D30*
X120050000Y-103125000D02*
X118825000Y-101900000D01*
X118700000Y-101775000D02*
X118825000Y-101900000D01*
D31*
X121500000Y-106125000D02*
X121575000Y-106200000D01*
D29*
X122214296Y-102685704D02*
X121300000Y-103600000D01*
X123014296Y-102685704D02*
X123050000Y-102650000D01*
X121575000Y-106475000D02*
X121575000Y-106200000D01*
D30*
X120050000Y-103550000D02*
X120050000Y-103125000D01*
%TO.N,VDC*%
X118400000Y-103550000D02*
X118600000Y-103750000D01*
X117550000Y-103550000D02*
X118400000Y-103550000D01*
X118600000Y-103750000D02*
X118600000Y-105250000D01*
X118400000Y-105450000D02*
X117550000Y-105450000D01*
D32*
X117325000Y-103325000D02*
X117550000Y-103550000D01*
X115835000Y-103260000D02*
X115900000Y-103325000D01*
D30*
X118600000Y-105250000D02*
X118400000Y-105450000D01*
D32*
X113300000Y-103260000D02*
X115835000Y-103260000D01*
X115900000Y-103325000D02*
X117325000Y-103325000D01*
D30*
%TO.N,Net-(IC2-NR)*%
X119875000Y-107300000D02*
X119875000Y-105625000D01*
X119875000Y-105625000D02*
X120050000Y-105450000D01*
D29*
%TO.N,/MUX_A*%
X124737258Y-98600000D02*
X127400000Y-98600000D01*
X123850000Y-99487258D02*
X124737258Y-98600000D01*
X129225000Y-99100000D02*
X129225000Y-98500000D01*
X127900000Y-99100000D02*
X129225000Y-99100000D01*
X127400000Y-98600000D02*
X127900000Y-99100000D01*
X123850000Y-100850000D02*
X123850000Y-99487258D01*
%TO.N,/COM_B*%
X127155554Y-106092809D02*
X126992809Y-106092809D01*
X135300000Y-105800000D02*
X135850000Y-105250000D01*
X135850000Y-105250000D02*
X135850000Y-104750000D01*
X125350000Y-104450000D02*
X125350000Y-103950000D01*
X126992809Y-106092809D02*
X125350000Y-104450000D01*
%TO.N,/COM_C*%
X135400000Y-109600000D02*
X135850000Y-109150000D01*
X135850000Y-109150000D02*
X135850000Y-108537500D01*
X130700000Y-108300000D02*
X132000000Y-109600000D01*
X132000000Y-109600000D02*
X135400000Y-109600000D01*
X124350000Y-105940746D02*
X126709254Y-108300000D01*
X126709254Y-108300000D02*
X130700000Y-108300000D01*
X124350000Y-103950000D02*
X124350000Y-105940746D01*
%TO.N,/PWM_B*%
X127048528Y-105300000D02*
X126150000Y-104401472D01*
X126150000Y-104401472D02*
X126150000Y-103900000D01*
X132350000Y-105282686D02*
X132350000Y-104637500D01*
X131759173Y-105873513D02*
X132350000Y-105282686D01*
%TO.N,/MUX_B*%
X127576584Y-104699034D02*
X128327550Y-105450000D01*
X128675000Y-104900000D02*
X129225000Y-105450000D01*
X122054275Y-102085704D02*
X122054275Y-101845725D01*
X122054275Y-101845725D02*
X122250000Y-101650000D01*
X122250000Y-101650000D02*
X123050000Y-101650000D01*
X128600000Y-104900000D02*
X128675000Y-104900000D01*
X128327550Y-105450000D02*
X129225000Y-105450000D01*
%TO.N,/PWM_A*%
X131900000Y-101400000D02*
X132350000Y-100950000D01*
X132350000Y-100950000D02*
X132350000Y-100637500D01*
X126750000Y-102150000D02*
X126150000Y-102150000D01*
X127500000Y-101400000D02*
X126750000Y-102150000D01*
%TO.N,/PWM_C*%
X124850000Y-103950000D02*
X124850000Y-105647059D01*
X127102941Y-107900000D02*
X131000000Y-107900000D01*
X131000000Y-107900000D02*
X131637500Y-108537500D01*
X131637500Y-108537500D02*
X132350000Y-108537500D01*
X124850000Y-105647059D02*
X127102941Y-107900000D01*
%TO.N,/TX0*%
X125151473Y-99748527D02*
X124850000Y-100050000D01*
X124850000Y-100050000D02*
X124850000Y-100850000D01*
X125151473Y-99600000D02*
X125151473Y-99748527D01*
%TO.N,/MUX_C*%
X121299192Y-101800808D02*
X122200000Y-100900000D01*
X121299192Y-102350000D02*
X121299192Y-101800808D01*
X122200000Y-100900000D02*
X123050000Y-100900000D01*
X129225000Y-106950000D02*
X129225000Y-107100000D01*
X125938481Y-105724265D02*
X127314216Y-107100000D01*
X125775735Y-105724265D02*
X125938481Y-105724265D01*
%TO.N,/COM_A*%
X127150000Y-102650000D02*
X126150000Y-102650000D01*
X132000000Y-102200000D02*
X132525000Y-101675000D01*
X132525000Y-101675000D02*
X135325000Y-101675000D01*
X135850000Y-101150000D02*
X135850000Y-100800000D01*
X128065687Y-102000000D02*
X127800000Y-102000000D01*
X127800000Y-102000000D02*
X127150000Y-102650000D01*
X135325000Y-101675000D02*
X135850000Y-101150000D01*
%TO.N,/RX0*%
X125600002Y-99999998D02*
X125350000Y-100250000D01*
X117425000Y-99375000D02*
X117425000Y-100400000D01*
X125900000Y-99999998D02*
X125600002Y-99999998D01*
X125350000Y-100250000D02*
X125350000Y-100850000D01*
X118700000Y-98100000D02*
X117425000Y-99375000D01*
%TO.N,/C2CK*%
X123225000Y-106925000D02*
X124440000Y-108140000D01*
X122200000Y-105000000D02*
X123225000Y-106025000D01*
X123050000Y-103150000D02*
X122450000Y-103150000D01*
X123225000Y-106025000D02*
X123225000Y-106200000D01*
X122200000Y-103400000D02*
X122200000Y-105000000D01*
X122450000Y-103150000D02*
X122200000Y-103400000D01*
X124440000Y-108140000D02*
X124440000Y-108600000D01*
X123225000Y-106200000D02*
X123225000Y-106925000D01*
%TO.N,/COMP_COM*%
X126900000Y-99000000D02*
X128500000Y-100600000D01*
X124902944Y-99000000D02*
X126900000Y-99000000D01*
X124350000Y-100850000D02*
X124350000Y-99552944D01*
X128500000Y-100600000D02*
X129225000Y-100600000D01*
X124350000Y-99552944D02*
X124902944Y-99000000D01*
X129225000Y-100600000D02*
X129225000Y-103600000D01*
%TO.N,/C2D*%
X123925000Y-105425000D02*
X123925000Y-106525000D01*
X125710000Y-108310000D02*
X125710000Y-108600000D01*
X123050000Y-103900000D02*
X123050000Y-104550000D01*
X123925000Y-106525000D02*
X125710000Y-108310000D01*
X123050000Y-104550000D02*
X123925000Y-105425000D01*
D31*
%TO.N,/RC_IN*%
X114910000Y-100720000D02*
X113938500Y-100720000D01*
X115775000Y-100400000D02*
X115230000Y-100400000D01*
X115230000Y-100400000D02*
X114910000Y-100720000D01*
D30*
%TO.N,Net-(J3-Pin_2)*%
X138300000Y-103000000D02*
X140100000Y-103000000D01*
D29*
X130875000Y-105450000D02*
X131600000Y-104725000D01*
D30*
X133412500Y-102650000D02*
X133300000Y-102762500D01*
D29*
X133237500Y-102825000D02*
X133300000Y-102762500D01*
D30*
X136800000Y-102650000D02*
X137950000Y-102650000D01*
D29*
X131600000Y-104725000D02*
X131600000Y-103700000D01*
D30*
X137950000Y-102650000D02*
X138300000Y-103000000D01*
D29*
X131600000Y-102825000D02*
X130875000Y-102100000D01*
X131600000Y-103000000D02*
X131600000Y-102825000D01*
D30*
X136800000Y-102650000D02*
X133412500Y-102650000D01*
D29*
X130875000Y-102115552D02*
X130875000Y-102100000D01*
X131600000Y-103700000D02*
X131600000Y-103000000D01*
X131600000Y-102825000D02*
X133237500Y-102825000D01*
%TO.N,Net-(J3-Pin_1)*%
X130875000Y-99100000D02*
X130875000Y-100600000D01*
X130875000Y-99100000D02*
X132500000Y-99100000D01*
D30*
X137600000Y-98700000D02*
X139900000Y-101000000D01*
D29*
X132500000Y-99100000D02*
X132837500Y-98762500D01*
D30*
X136800000Y-98700000D02*
X133362500Y-98700000D01*
X136862500Y-98700000D02*
X137600000Y-98700000D01*
X136800000Y-98762500D02*
X136862500Y-98700000D01*
X133362500Y-98700000D02*
X133300000Y-98762500D01*
X139900000Y-101000000D02*
X140100000Y-101000000D01*
D29*
X132837500Y-98762500D02*
X133300000Y-98762500D01*
%TO.N,Net-(J3-Pin_3)*%
X130875000Y-107100000D02*
X130175000Y-106400000D01*
D32*
X136737500Y-106662500D02*
X136800000Y-106600000D01*
X136800000Y-106600000D02*
X138500000Y-106600000D01*
X133300000Y-106662500D02*
X136737500Y-106662500D01*
X138500000Y-106600000D02*
X140100000Y-105000000D01*
D29*
X130875000Y-107100000D02*
X132000000Y-107100000D01*
X132000000Y-107100000D02*
X132437500Y-106662500D01*
D30*
X140100000Y-105200000D02*
X140100000Y-105000000D01*
D29*
X130175000Y-104300000D02*
X130875000Y-103600000D01*
X132437500Y-106662500D02*
X133300000Y-106662500D01*
X130175000Y-106400000D02*
X130175000Y-104300000D01*
%TD*%
%TA.AperFunction,Conductor*%
%TO.N,GND*%
G36*
X115243569Y-103899938D02*
G01*
X115269807Y-103919964D01*
X115274920Y-103925077D01*
X115390023Y-104012363D01*
X115390024Y-104012363D01*
X115390025Y-104012364D01*
X115524410Y-104065359D01*
X115608856Y-104075500D01*
X115608862Y-104075500D01*
X116191138Y-104075500D01*
X116191144Y-104075500D01*
X116275590Y-104065359D01*
X116409975Y-104012364D01*
X116497161Y-103946248D01*
X116562470Y-103921425D01*
X116630834Y-103935852D01*
X116680545Y-103984949D01*
X116685519Y-103994965D01*
X116696476Y-104019780D01*
X116697794Y-104022765D01*
X116777235Y-104102206D01*
X116880009Y-104147585D01*
X116905135Y-104150500D01*
X117975500Y-104150499D01*
X118042539Y-104170183D01*
X118088294Y-104222987D01*
X118099500Y-104274499D01*
X118099500Y-104725500D01*
X118079815Y-104792539D01*
X118027011Y-104838294D01*
X117975500Y-104849500D01*
X116905143Y-104849500D01*
X116905117Y-104849502D01*
X116880012Y-104852413D01*
X116880008Y-104852415D01*
X116777235Y-104897793D01*
X116697794Y-104977234D01*
X116652415Y-105080006D01*
X116652415Y-105080008D01*
X116649500Y-105105131D01*
X116649500Y-105794856D01*
X116649502Y-105794882D01*
X116652413Y-105819987D01*
X116652415Y-105819991D01*
X116697793Y-105922764D01*
X116697794Y-105922765D01*
X116777235Y-106002206D01*
X116880009Y-106047585D01*
X116905135Y-106050500D01*
X118194864Y-106050499D01*
X118194879Y-106050497D01*
X118194882Y-106050497D01*
X118219987Y-106047586D01*
X118219988Y-106047585D01*
X118219991Y-106047585D01*
X118322765Y-106002206D01*
X118338152Y-105986819D01*
X118399475Y-105953334D01*
X118425833Y-105950500D01*
X118465890Y-105950500D01*
X118465892Y-105950500D01*
X118593186Y-105916392D01*
X118707314Y-105850500D01*
X118937821Y-105619992D01*
X118999142Y-105586509D01*
X119068833Y-105591493D01*
X119124767Y-105633364D01*
X119149184Y-105698829D01*
X119149500Y-105707674D01*
X119149500Y-105794855D01*
X119149502Y-105794882D01*
X119152413Y-105819987D01*
X119152415Y-105819991D01*
X119197793Y-105922764D01*
X119197794Y-105922765D01*
X119277235Y-106002206D01*
X119293757Y-106009501D01*
X119300585Y-106012516D01*
X119353962Y-106057601D01*
X119374490Y-106124387D01*
X119374500Y-106125951D01*
X119374500Y-106537819D01*
X119354815Y-106604858D01*
X119325426Y-106636622D01*
X119274922Y-106674920D01*
X119187636Y-106790023D01*
X119134640Y-106924411D01*
X119131662Y-106949215D01*
X119124500Y-107008856D01*
X119124500Y-107591144D01*
X119127645Y-107617331D01*
X119134640Y-107675588D01*
X119187636Y-107809976D01*
X119274921Y-107925078D01*
X119390023Y-108012363D01*
X119390024Y-108012363D01*
X119390025Y-108012364D01*
X119524410Y-108065359D01*
X119608856Y-108075500D01*
X119608862Y-108075500D01*
X120141138Y-108075500D01*
X120141144Y-108075500D01*
X120225590Y-108065359D01*
X120359975Y-108012364D01*
X120475078Y-107925078D01*
X120562364Y-107809975D01*
X120615359Y-107675590D01*
X120625500Y-107591144D01*
X120625500Y-107008856D01*
X120615359Y-106924410D01*
X120562364Y-106790025D01*
X120562363Y-106790024D01*
X120562363Y-106790023D01*
X120475077Y-106674920D01*
X120424574Y-106636622D01*
X120383051Y-106580429D01*
X120375500Y-106537819D01*
X120375500Y-106174499D01*
X120395185Y-106107460D01*
X120447989Y-106061705D01*
X120499500Y-106050499D01*
X120694856Y-106050499D01*
X120694864Y-106050499D01*
X120694879Y-106050497D01*
X120694882Y-106050497D01*
X120729258Y-106046511D01*
X120729473Y-106048373D01*
X120787788Y-106049530D01*
X120845805Y-106088463D01*
X120873564Y-106152582D01*
X120874500Y-106167791D01*
X120874500Y-106522869D01*
X120874501Y-106522876D01*
X120880908Y-106582483D01*
X120931202Y-106717328D01*
X120931206Y-106717335D01*
X121017452Y-106832544D01*
X121017455Y-106832547D01*
X121132664Y-106918793D01*
X121132671Y-106918797D01*
X121161566Y-106929574D01*
X121267517Y-106969091D01*
X121327127Y-106975500D01*
X121662033Y-106975499D01*
X121729072Y-106995183D01*
X121749714Y-107011818D01*
X122600228Y-107862332D01*
X122633713Y-107923655D01*
X122628729Y-107993347D01*
X122600228Y-108037694D01*
X122540184Y-108097737D01*
X122444211Y-108250476D01*
X122384631Y-108420745D01*
X122384630Y-108420750D01*
X122364435Y-108599996D01*
X122364435Y-108600003D01*
X122384630Y-108779249D01*
X122384631Y-108779254D01*
X122444211Y-108949523D01*
X122523368Y-109075500D01*
X122540184Y-109102262D01*
X122667738Y-109229816D01*
X122820478Y-109325789D01*
X122990745Y-109385368D01*
X122990750Y-109385369D01*
X123169996Y-109405565D01*
X123170000Y-109405565D01*
X123170004Y-109405565D01*
X123349249Y-109385369D01*
X123349252Y-109385368D01*
X123349255Y-109385368D01*
X123519522Y-109325789D01*
X123672262Y-109229816D01*
X123717319Y-109184759D01*
X123778642Y-109151274D01*
X123848334Y-109156258D01*
X123892681Y-109184759D01*
X123937738Y-109229816D01*
X124090478Y-109325789D01*
X124260745Y-109385368D01*
X124260750Y-109385369D01*
X124439996Y-109405565D01*
X124440000Y-109405565D01*
X124440004Y-109405565D01*
X124619249Y-109385369D01*
X124619252Y-109385368D01*
X124619255Y-109385368D01*
X124789522Y-109325789D01*
X124942262Y-109229816D01*
X124987319Y-109184759D01*
X125048642Y-109151274D01*
X125118334Y-109156258D01*
X125162681Y-109184759D01*
X125207738Y-109229816D01*
X125360478Y-109325789D01*
X125530745Y-109385368D01*
X125530750Y-109385369D01*
X125709996Y-109405565D01*
X125710000Y-109405565D01*
X125710004Y-109405565D01*
X125889249Y-109385369D01*
X125889252Y-109385368D01*
X125889255Y-109385368D01*
X126059522Y-109325789D01*
X126212262Y-109229816D01*
X126339816Y-109102262D01*
X126435789Y-108949522D01*
X126495368Y-108779255D01*
X126495368Y-108779254D01*
X126496378Y-108776369D01*
X126537100Y-108719592D01*
X126602053Y-108693845D01*
X126645512Y-108697548D01*
X126656527Y-108700500D01*
X130482745Y-108700500D01*
X130549784Y-108720185D01*
X130570426Y-108736819D01*
X131675179Y-109841571D01*
X131675189Y-109841582D01*
X131679519Y-109845912D01*
X131679520Y-109845913D01*
X131754087Y-109920480D01*
X131845413Y-109973207D01*
X131947273Y-110000501D01*
X131947275Y-110000501D01*
X132060323Y-110000501D01*
X132060339Y-110000500D01*
X135452725Y-110000500D01*
X135452727Y-110000500D01*
X135554588Y-109973207D01*
X135645913Y-109920480D01*
X135879575Y-109686816D01*
X135940896Y-109653333D01*
X135967255Y-109650499D01*
X136194856Y-109650499D01*
X136194864Y-109650499D01*
X136194879Y-109650497D01*
X136194882Y-109650497D01*
X136219987Y-109647586D01*
X136219988Y-109647585D01*
X136219991Y-109647585D01*
X136322765Y-109602206D01*
X136402206Y-109522765D01*
X136447585Y-109419991D01*
X136450500Y-109394865D01*
X136450499Y-108699998D01*
X137144318Y-108699998D01*
X137144318Y-108700001D01*
X137148439Y-108731304D01*
X137149500Y-108747489D01*
X137149500Y-109394856D01*
X137149502Y-109394882D01*
X137152413Y-109419987D01*
X137152415Y-109419991D01*
X137197793Y-109522764D01*
X137197794Y-109522765D01*
X137277235Y-109602206D01*
X137380009Y-109647585D01*
X137405135Y-109650500D01*
X138094864Y-109650499D01*
X138094879Y-109650497D01*
X138094882Y-109650497D01*
X138119987Y-109647586D01*
X138119988Y-109647585D01*
X138119991Y-109647585D01*
X138222765Y-109602206D01*
X138302206Y-109522765D01*
X138347585Y-109419991D01*
X138350500Y-109394865D01*
X138350499Y-108747489D01*
X138351560Y-108731304D01*
X138353102Y-108719592D01*
X138355682Y-108700000D01*
X138351560Y-108668692D01*
X138350499Y-108652506D01*
X138350499Y-108005143D01*
X138350499Y-108005136D01*
X138349132Y-107993347D01*
X138347586Y-107980012D01*
X138347585Y-107980010D01*
X138347585Y-107980009D01*
X138302206Y-107877235D01*
X138222765Y-107797794D01*
X138212433Y-107793232D01*
X138119992Y-107752415D01*
X138094865Y-107749500D01*
X137405143Y-107749500D01*
X137405117Y-107749502D01*
X137380012Y-107752413D01*
X137380008Y-107752415D01*
X137277235Y-107797793D01*
X137197794Y-107877234D01*
X137152415Y-107980006D01*
X137152415Y-107980008D01*
X137149500Y-108005131D01*
X137149500Y-108652510D01*
X137148439Y-108668695D01*
X137144318Y-108699998D01*
X136450499Y-108699998D01*
X136450499Y-108005136D01*
X136449132Y-107993347D01*
X136447586Y-107980012D01*
X136447585Y-107980010D01*
X136447585Y-107980009D01*
X136402206Y-107877235D01*
X136322765Y-107797794D01*
X136312433Y-107793232D01*
X136219992Y-107752415D01*
X136194865Y-107749500D01*
X135505143Y-107749500D01*
X135505117Y-107749502D01*
X135480012Y-107752413D01*
X135480008Y-107752415D01*
X135377235Y-107797793D01*
X135297794Y-107877234D01*
X135252415Y-107980006D01*
X135252415Y-107980008D01*
X135249500Y-108005131D01*
X135249500Y-109075500D01*
X135229815Y-109142539D01*
X135177011Y-109188294D01*
X135125500Y-109199500D01*
X133074500Y-109199500D01*
X133007461Y-109179815D01*
X132961706Y-109127011D01*
X132950500Y-109075500D01*
X132950500Y-107895730D01*
X132947646Y-107865301D01*
X132946845Y-107863011D01*
X132946753Y-107861210D01*
X132946036Y-107857927D01*
X132946579Y-107857808D01*
X132943284Y-107793232D01*
X132978013Y-107732605D01*
X133040007Y-107700378D01*
X133075464Y-107698599D01*
X133095734Y-107700500D01*
X133504270Y-107700500D01*
X133534699Y-107697646D01*
X133534701Y-107697646D01*
X133598790Y-107675219D01*
X133662882Y-107652793D01*
X133772150Y-107572150D01*
X133852793Y-107462882D01*
X133897646Y-107334699D01*
X133898515Y-107325423D01*
X133924372Y-107260516D01*
X133981216Y-107219890D01*
X134021974Y-107213000D01*
X136079556Y-107213000D01*
X136146595Y-107232685D01*
X136192350Y-107285489D01*
X136199496Y-107311114D01*
X136199965Y-107310987D01*
X136202415Y-107319991D01*
X136247793Y-107422764D01*
X136247794Y-107422765D01*
X136327235Y-107502206D01*
X136430009Y-107547585D01*
X136455135Y-107550500D01*
X137144864Y-107550499D01*
X137144879Y-107550497D01*
X137144882Y-107550497D01*
X137169987Y-107547586D01*
X137169988Y-107547585D01*
X137169991Y-107547585D01*
X137272765Y-107502206D01*
X137352206Y-107422765D01*
X137397585Y-107319991D01*
X137400500Y-107294865D01*
X137400500Y-107274500D01*
X137420185Y-107207461D01*
X137472989Y-107161706D01*
X137524500Y-107150500D01*
X138572472Y-107150500D01*
X138572474Y-107150500D01*
X138572475Y-107150500D01*
X138712485Y-107112984D01*
X138838015Y-107040510D01*
X139874920Y-106003603D01*
X139936241Y-105970120D01*
X139974749Y-105967883D01*
X140100000Y-105980220D01*
X140291231Y-105961385D01*
X140475114Y-105905605D01*
X140475979Y-105905143D01*
X140583744Y-105847541D01*
X140644581Y-105815023D01*
X140793120Y-105693120D01*
X140793120Y-105693119D01*
X140796835Y-105690071D01*
X140861145Y-105662758D01*
X140930012Y-105674549D01*
X140981573Y-105721701D01*
X140999500Y-105785924D01*
X140999500Y-109524167D01*
X140979815Y-109591206D01*
X140963181Y-109611848D01*
X140211848Y-110363181D01*
X140150525Y-110396666D01*
X140124167Y-110399500D01*
X114475833Y-110399500D01*
X114408794Y-110379815D01*
X114388152Y-110363181D01*
X113636819Y-109611848D01*
X113603334Y-109550525D01*
X113600500Y-109524167D01*
X113600500Y-104446500D01*
X113620185Y-104379461D01*
X113672989Y-104333706D01*
X113724500Y-104322500D01*
X114593097Y-104322500D01*
X114593102Y-104322500D01*
X114681564Y-104311877D01*
X114822342Y-104256361D01*
X114942922Y-104164922D01*
X115034361Y-104044342D01*
X115066772Y-103962153D01*
X115109677Y-103907011D01*
X115175585Y-103883818D01*
X115243569Y-103899938D01*
G37*
%TD.AperFunction*%
%TA.AperFunction,Conductor*%
G36*
X136142540Y-103170185D02*
G01*
X136188295Y-103222989D01*
X136199501Y-103274500D01*
X136199501Y-103344856D01*
X136199502Y-103344882D01*
X136202413Y-103369987D01*
X136202415Y-103369991D01*
X136247793Y-103472764D01*
X136247794Y-103472765D01*
X136327235Y-103552206D01*
X136430009Y-103597585D01*
X136455135Y-103600500D01*
X137144864Y-103600499D01*
X137144879Y-103600497D01*
X137144882Y-103600497D01*
X137169987Y-103597586D01*
X137169988Y-103597585D01*
X137169991Y-103597585D01*
X137272765Y-103552206D01*
X137352206Y-103472765D01*
X137397585Y-103369991D01*
X137400500Y-103344865D01*
X137400500Y-103274500D01*
X137420185Y-103207461D01*
X137472989Y-103161706D01*
X137524500Y-103150500D01*
X137691324Y-103150500D01*
X137758363Y-103170185D01*
X137779005Y-103186819D01*
X137992686Y-103400500D01*
X138106814Y-103466392D01*
X138234108Y-103500500D01*
X138365893Y-103500500D01*
X139190153Y-103500500D01*
X139257192Y-103520185D01*
X139286006Y-103545835D01*
X139406879Y-103693120D01*
X139555417Y-103815022D01*
X139555424Y-103815027D01*
X139696890Y-103890642D01*
X139746735Y-103939604D01*
X139762195Y-104007742D01*
X139738363Y-104073422D01*
X139696890Y-104109358D01*
X139555424Y-104184972D01*
X139555417Y-104184977D01*
X139406879Y-104306879D01*
X139284977Y-104455417D01*
X139284973Y-104455424D01*
X139194396Y-104624881D01*
X139138614Y-104808770D01*
X139119780Y-105000000D01*
X139132115Y-105125245D01*
X139119096Y-105193891D01*
X139096393Y-105225080D01*
X138308294Y-106013181D01*
X138246971Y-106046666D01*
X138220613Y-106049500D01*
X137524499Y-106049500D01*
X137457460Y-106029815D01*
X137411705Y-105977011D01*
X137400499Y-105925500D01*
X137400499Y-105905143D01*
X137400499Y-105905136D01*
X137400497Y-105905117D01*
X137397586Y-105880012D01*
X137397585Y-105880011D01*
X137397585Y-105880009D01*
X137395190Y-105874586D01*
X137386118Y-105805310D01*
X137415940Y-105742124D01*
X137475188Y-105705092D01*
X137508617Y-105700499D01*
X138094864Y-105700499D01*
X138094879Y-105700497D01*
X138094882Y-105700497D01*
X138119987Y-105697586D01*
X138119988Y-105697585D01*
X138119991Y-105697585D01*
X138222765Y-105652206D01*
X138302206Y-105572765D01*
X138347585Y-105469991D01*
X138350500Y-105444865D01*
X138350499Y-104797489D01*
X138351560Y-104781304D01*
X138355682Y-104750000D01*
X138351560Y-104718692D01*
X138350499Y-104702506D01*
X138350499Y-104055143D01*
X138350499Y-104055136D01*
X138350329Y-104053667D01*
X138347586Y-104030012D01*
X138347585Y-104030010D01*
X138347585Y-104030009D01*
X138302206Y-103927235D01*
X138222765Y-103847794D01*
X138188365Y-103832605D01*
X138119992Y-103802415D01*
X138094865Y-103799500D01*
X137405143Y-103799500D01*
X137405117Y-103799502D01*
X137380012Y-103802413D01*
X137380008Y-103802415D01*
X137277235Y-103847793D01*
X137197794Y-103927234D01*
X137152415Y-104030006D01*
X137152415Y-104030008D01*
X137149500Y-104055131D01*
X137149500Y-104702510D01*
X137148439Y-104718695D01*
X137144318Y-104749998D01*
X137144318Y-104750001D01*
X137148439Y-104781304D01*
X137149500Y-104797489D01*
X137149500Y-105444856D01*
X137149502Y-105444882D01*
X137152413Y-105469987D01*
X137152414Y-105469989D01*
X137154810Y-105475415D01*
X137163881Y-105544693D01*
X137134057Y-105607878D01*
X137074807Y-105644908D01*
X137041375Y-105649500D01*
X136558624Y-105649500D01*
X136491585Y-105629815D01*
X136445830Y-105577011D01*
X136435886Y-105507853D01*
X136445190Y-105475414D01*
X136447585Y-105469991D01*
X136450500Y-105444865D01*
X136450499Y-104055136D01*
X136450329Y-104053667D01*
X136447586Y-104030012D01*
X136447585Y-104030010D01*
X136447585Y-104030009D01*
X136402206Y-103927235D01*
X136322765Y-103847794D01*
X136288365Y-103832605D01*
X136219992Y-103802415D01*
X136194865Y-103799500D01*
X135505143Y-103799500D01*
X135505117Y-103799502D01*
X135480012Y-103802413D01*
X135480008Y-103802415D01*
X135377235Y-103847793D01*
X135297794Y-103927234D01*
X135252415Y-104030006D01*
X135252415Y-104030008D01*
X135249500Y-104055131D01*
X135249500Y-105092221D01*
X135229815Y-105159260D01*
X135177011Y-105205015D01*
X135150990Y-105212489D01*
X135151088Y-105212853D01*
X135143237Y-105214956D01*
X134997160Y-105275463D01*
X134871718Y-105371718D01*
X134775463Y-105497160D01*
X134714956Y-105643237D01*
X134714955Y-105643239D01*
X134694995Y-105794855D01*
X134694318Y-105800000D01*
X134714131Y-105950499D01*
X134716017Y-105964820D01*
X134714510Y-105965018D01*
X134713063Y-106025761D01*
X134673898Y-106083622D01*
X134609668Y-106111124D01*
X134594952Y-106112000D01*
X134021974Y-106112000D01*
X133954935Y-106092315D01*
X133909180Y-106039511D01*
X133898515Y-105999577D01*
X133897646Y-105990301D01*
X133897645Y-105990298D01*
X133897645Y-105990296D01*
X133856780Y-105873513D01*
X133852793Y-105862118D01*
X133772150Y-105752850D01*
X133662882Y-105672207D01*
X133662880Y-105672206D01*
X133534700Y-105627353D01*
X133504270Y-105624500D01*
X133504266Y-105624500D01*
X133095734Y-105624500D01*
X133095730Y-105624500D01*
X133065301Y-105627353D01*
X133037130Y-105637211D01*
X132967351Y-105640772D01*
X132906724Y-105606043D01*
X132874497Y-105544049D01*
X132880903Y-105474474D01*
X132896403Y-105446540D01*
X132902793Y-105437882D01*
X132937728Y-105338044D01*
X132947646Y-105309701D01*
X132947646Y-105309699D01*
X132950500Y-105279269D01*
X132950500Y-103995730D01*
X132947646Y-103965301D01*
X132946845Y-103963011D01*
X132946753Y-103961210D01*
X132946036Y-103957927D01*
X132946579Y-103957808D01*
X132943284Y-103893232D01*
X132978013Y-103832605D01*
X133040007Y-103800378D01*
X133075464Y-103798599D01*
X133095734Y-103800500D01*
X133504270Y-103800500D01*
X133534699Y-103797646D01*
X133534701Y-103797646D01*
X133609509Y-103771469D01*
X133662882Y-103752793D01*
X133772150Y-103672150D01*
X133852793Y-103562882D01*
X133884327Y-103472764D01*
X133897646Y-103434701D01*
X133897646Y-103434699D01*
X133900500Y-103404269D01*
X133900500Y-103274500D01*
X133920185Y-103207461D01*
X133972989Y-103161706D01*
X134024500Y-103150500D01*
X136075501Y-103150500D01*
X136142540Y-103170185D01*
G37*
%TD.AperFunction*%
%TA.AperFunction,Conductor*%
G36*
X128507519Y-102509244D02*
G01*
X128557512Y-102558054D01*
X128565581Y-102575445D01*
X128581203Y-102617329D01*
X128581206Y-102617335D01*
X128667452Y-102732544D01*
X128667453Y-102732544D01*
X128667454Y-102732546D01*
X128691575Y-102750603D01*
X128691750Y-102750734D01*
X128733620Y-102806668D01*
X128738604Y-102876360D01*
X128705118Y-102937683D01*
X128691750Y-102949266D01*
X128667452Y-102967455D01*
X128581206Y-103082664D01*
X128581202Y-103082671D01*
X128530910Y-103217513D01*
X128530909Y-103217517D01*
X128524500Y-103277127D01*
X128524500Y-103277134D01*
X128524500Y-103277135D01*
X128524500Y-103922870D01*
X128524501Y-103922876D01*
X128530908Y-103982483D01*
X128581202Y-104117328D01*
X128585454Y-104125114D01*
X128582397Y-104126783D01*
X128600957Y-104176632D01*
X128586066Y-104244896D01*
X128536632Y-104294273D01*
X128493454Y-104308344D01*
X128443238Y-104314956D01*
X128443237Y-104314956D01*
X128297158Y-104375464D01*
X128262132Y-104402340D01*
X128196962Y-104427533D01*
X128128518Y-104413494D01*
X128088273Y-104379451D01*
X128007741Y-104274499D01*
X128004867Y-104270753D01*
X127974267Y-104247273D01*
X127879425Y-104174498D01*
X127821486Y-104150499D01*
X127733346Y-104113990D01*
X127733344Y-104113989D01*
X127576585Y-104093352D01*
X127576583Y-104093352D01*
X127419823Y-104113989D01*
X127419821Y-104113990D01*
X127273744Y-104174497D01*
X127273743Y-104174498D01*
X127148302Y-104270752D01*
X127148300Y-104270753D01*
X127148299Y-104270755D01*
X127122873Y-104303890D01*
X127066445Y-104345092D01*
X126996699Y-104349245D01*
X126935779Y-104315032D01*
X126903027Y-104253314D01*
X126900499Y-104228410D01*
X126900499Y-103455136D01*
X126900497Y-103455117D01*
X126897586Y-103430012D01*
X126897585Y-103430010D01*
X126897585Y-103430009D01*
X126852206Y-103327235D01*
X126787152Y-103262181D01*
X126753667Y-103200858D01*
X126758651Y-103131166D01*
X126800523Y-103075233D01*
X126865987Y-103050816D01*
X126874833Y-103050500D01*
X127202725Y-103050500D01*
X127202727Y-103050500D01*
X127304588Y-103023207D01*
X127395913Y-102970480D01*
X127760129Y-102606262D01*
X127821450Y-102572779D01*
X127891141Y-102577763D01*
X127895239Y-102579374D01*
X127908925Y-102585044D01*
X128049349Y-102603531D01*
X128065686Y-102605682D01*
X128065687Y-102605682D01*
X128065688Y-102605682D01*
X128117941Y-102598802D01*
X128222449Y-102585044D01*
X128368528Y-102524536D01*
X128373909Y-102520406D01*
X128439074Y-102495210D01*
X128507519Y-102509244D01*
G37*
%TD.AperFunction*%
%TA.AperFunction,Conductor*%
G36*
X133050839Y-97520185D02*
G01*
X133096594Y-97572989D01*
X133106538Y-97642147D01*
X133077513Y-97705703D01*
X133024755Y-97741541D01*
X132937119Y-97772206D01*
X132937117Y-97772207D01*
X132827850Y-97852850D01*
X132747207Y-97962117D01*
X132747206Y-97962119D01*
X132702353Y-98090298D01*
X132702353Y-98090300D01*
X132699500Y-98120730D01*
X132699500Y-98308125D01*
X132679815Y-98375164D01*
X132637500Y-98415512D01*
X132591590Y-98442018D01*
X132591584Y-98442022D01*
X132370426Y-98663181D01*
X132309103Y-98696666D01*
X132282745Y-98699500D01*
X131648467Y-98699500D01*
X131581428Y-98679815D01*
X131535673Y-98627011D01*
X131532285Y-98618834D01*
X131518796Y-98582669D01*
X131518793Y-98582664D01*
X131432547Y-98467455D01*
X131432544Y-98467452D01*
X131317335Y-98381206D01*
X131317328Y-98381202D01*
X131182486Y-98330910D01*
X131182485Y-98330909D01*
X131182483Y-98330909D01*
X131122873Y-98324500D01*
X131122863Y-98324500D01*
X130627129Y-98324500D01*
X130627123Y-98324501D01*
X130567516Y-98330908D01*
X130432671Y-98381202D01*
X130432664Y-98381206D01*
X130317455Y-98467452D01*
X130317452Y-98467455D01*
X130231206Y-98582664D01*
X130231202Y-98582671D01*
X130181862Y-98714961D01*
X130180909Y-98717517D01*
X130174500Y-98777127D01*
X130174500Y-98777134D01*
X130174500Y-98777135D01*
X130174500Y-99422870D01*
X130174501Y-99422876D01*
X130180908Y-99482483D01*
X130231202Y-99617328D01*
X130231206Y-99617335D01*
X130317452Y-99732544D01*
X130317453Y-99732544D01*
X130317454Y-99732546D01*
X130341575Y-99750603D01*
X130341750Y-99750734D01*
X130383620Y-99806668D01*
X130388604Y-99876360D01*
X130355118Y-99937683D01*
X130341750Y-99949266D01*
X130317452Y-99967455D01*
X130231206Y-100082664D01*
X130231202Y-100082671D01*
X130180910Y-100217513D01*
X130180909Y-100217517D01*
X130174500Y-100277127D01*
X130174500Y-100277134D01*
X130174500Y-100277135D01*
X130174500Y-100922870D01*
X130174501Y-100922876D01*
X130180908Y-100982483D01*
X130231202Y-101117328D01*
X130231206Y-101117335D01*
X130317452Y-101232544D01*
X130317453Y-101232544D01*
X130317454Y-101232546D01*
X130331737Y-101243238D01*
X130341750Y-101250734D01*
X130383620Y-101306668D01*
X130388604Y-101376360D01*
X130355118Y-101437683D01*
X130341750Y-101449266D01*
X130317452Y-101467455D01*
X130231206Y-101582664D01*
X130231202Y-101582671D01*
X130181340Y-101716361D01*
X130180909Y-101717517D01*
X130174500Y-101777127D01*
X130174500Y-101777134D01*
X130174500Y-101777135D01*
X130174500Y-102422870D01*
X130174501Y-102422876D01*
X130180908Y-102482483D01*
X130231202Y-102617328D01*
X130231206Y-102617335D01*
X130317452Y-102732544D01*
X130317453Y-102732544D01*
X130317454Y-102732546D01*
X130341575Y-102750603D01*
X130341750Y-102750734D01*
X130383620Y-102806668D01*
X130388604Y-102876360D01*
X130355118Y-102937683D01*
X130341750Y-102949266D01*
X130317452Y-102967455D01*
X130231206Y-103082664D01*
X130231202Y-103082671D01*
X130180908Y-103217517D01*
X130176107Y-103262181D01*
X130174501Y-103277123D01*
X130174500Y-103277135D01*
X130174500Y-103682744D01*
X130154815Y-103749783D01*
X130138137Y-103770469D01*
X130137136Y-103771469D01*
X130075797Y-103804923D01*
X130006107Y-103799904D01*
X129950195Y-103758005D01*
X129925811Y-103692528D01*
X129925499Y-103683761D01*
X129925499Y-103277128D01*
X129919091Y-103217517D01*
X129918400Y-103215665D01*
X129868797Y-103082671D01*
X129868793Y-103082664D01*
X129782547Y-102967455D01*
X129782546Y-102967454D01*
X129769751Y-102957876D01*
X129758250Y-102949266D01*
X129716379Y-102893334D01*
X129711395Y-102823642D01*
X129744880Y-102762319D01*
X129758251Y-102750733D01*
X129782546Y-102732546D01*
X129868796Y-102617331D01*
X129919091Y-102482483D01*
X129925500Y-102422873D01*
X129925499Y-101777128D01*
X129919343Y-101719862D01*
X129919091Y-101717516D01*
X129868797Y-101582671D01*
X129868793Y-101582664D01*
X129782547Y-101467455D01*
X129782546Y-101467454D01*
X129758251Y-101449267D01*
X129716379Y-101393334D01*
X129711395Y-101323642D01*
X129744880Y-101262319D01*
X129758251Y-101250733D01*
X129760828Y-101248804D01*
X129782546Y-101232546D01*
X129868796Y-101117331D01*
X129919091Y-100982483D01*
X129925500Y-100922873D01*
X129925499Y-100277128D01*
X129919091Y-100217517D01*
X129913458Y-100202415D01*
X129868797Y-100082671D01*
X129868793Y-100082664D01*
X129782547Y-99967455D01*
X129782546Y-99967454D01*
X129774205Y-99961210D01*
X129758250Y-99949266D01*
X129716379Y-99893334D01*
X129711395Y-99823642D01*
X129744880Y-99762319D01*
X129758251Y-99750733D01*
X129782546Y-99732546D01*
X129868796Y-99617331D01*
X129919091Y-99482483D01*
X129925500Y-99422873D01*
X129925499Y-98777128D01*
X129919091Y-98717517D01*
X129912253Y-98699184D01*
X129868797Y-98582671D01*
X129868794Y-98582665D01*
X129855192Y-98564495D01*
X129831521Y-98506371D01*
X129810044Y-98343239D01*
X129810044Y-98343238D01*
X129749536Y-98197159D01*
X129653282Y-98071718D01*
X129527841Y-97975464D01*
X129495623Y-97962119D01*
X129381762Y-97914956D01*
X129381760Y-97914955D01*
X129225001Y-97894318D01*
X129224999Y-97894318D01*
X129068239Y-97914955D01*
X129068237Y-97914956D01*
X128922160Y-97975463D01*
X128796718Y-98071718D01*
X128700463Y-98197160D01*
X128639956Y-98343237D01*
X128639956Y-98343239D01*
X128618478Y-98506372D01*
X128594810Y-98564491D01*
X128581207Y-98582664D01*
X128581201Y-98582674D01*
X128567716Y-98618832D01*
X128525846Y-98674766D01*
X128460381Y-98699184D01*
X128451534Y-98699500D01*
X128117254Y-98699500D01*
X128050215Y-98679815D01*
X128029573Y-98663181D01*
X127841506Y-98475114D01*
X127645913Y-98279520D01*
X127600250Y-98253156D01*
X127554589Y-98226793D01*
X127503657Y-98213146D01*
X127452727Y-98199500D01*
X124789985Y-98199500D01*
X124684531Y-98199500D01*
X124582668Y-98226793D01*
X124491345Y-98279520D01*
X124491342Y-98279522D01*
X123529522Y-99241342D01*
X123529520Y-99241345D01*
X123476793Y-99332668D01*
X123469174Y-99361103D01*
X123465365Y-99375320D01*
X123465365Y-99375321D01*
X123465364Y-99375320D01*
X123449500Y-99434529D01*
X123449500Y-100075500D01*
X123429815Y-100142539D01*
X123377011Y-100188294D01*
X123325500Y-100199500D01*
X122555143Y-100199500D01*
X122555117Y-100199502D01*
X122530012Y-100202413D01*
X122530008Y-100202415D01*
X122427235Y-100247793D01*
X122347794Y-100327234D01*
X122304367Y-100425587D01*
X122259281Y-100478963D01*
X122192495Y-100499490D01*
X122190933Y-100499500D01*
X122147273Y-100499500D01*
X122045410Y-100526793D01*
X121954087Y-100579520D01*
X121954084Y-100579522D01*
X120978714Y-101554892D01*
X120978712Y-101554895D01*
X120925984Y-101646221D01*
X120906253Y-101719862D01*
X120898692Y-101748078D01*
X120898692Y-101843419D01*
X120879007Y-101910458D01*
X120873068Y-101918905D01*
X120774656Y-102047157D01*
X120714148Y-102193237D01*
X120714147Y-102193239D01*
X120693510Y-102349998D01*
X120693510Y-102350001D01*
X120714147Y-102506760D01*
X120714148Y-102506762D01*
X120760107Y-102617718D01*
X120774656Y-102652841D01*
X120855816Y-102758611D01*
X120881009Y-102823777D01*
X120866971Y-102892222D01*
X120818157Y-102942212D01*
X120750066Y-102957876D01*
X120724893Y-102953748D01*
X120719994Y-102952415D01*
X120694868Y-102949500D01*
X120694865Y-102949500D01*
X120598194Y-102949500D01*
X120531155Y-102929815D01*
X120490807Y-102887500D01*
X120486047Y-102879255D01*
X120450500Y-102817686D01*
X120357314Y-102724500D01*
X119611819Y-101979005D01*
X119578334Y-101917682D01*
X119575500Y-101891324D01*
X119575500Y-101608862D01*
X119575500Y-101608856D01*
X119565359Y-101524410D01*
X119512364Y-101390025D01*
X119512363Y-101390024D01*
X119512363Y-101390023D01*
X119425078Y-101274921D01*
X119390637Y-101248804D01*
X119349113Y-101192611D01*
X119344562Y-101122890D01*
X119378427Y-101061776D01*
X119390637Y-101051196D01*
X119425078Y-101025078D01*
X119504398Y-100920480D01*
X119512364Y-100909975D01*
X119565359Y-100775590D01*
X119575500Y-100691144D01*
X119575500Y-100108856D01*
X119565359Y-100024410D01*
X119512364Y-99890025D01*
X119512363Y-99890024D01*
X119512363Y-99890023D01*
X119425078Y-99774921D01*
X119309976Y-99687636D01*
X119175588Y-99634640D01*
X119132242Y-99629435D01*
X119091144Y-99624500D01*
X118558856Y-99624500D01*
X118520841Y-99629065D01*
X118474411Y-99634640D01*
X118340023Y-99687636D01*
X118224922Y-99774921D01*
X118205207Y-99800919D01*
X118149013Y-99842441D01*
X118079292Y-99846992D01*
X118018179Y-99813126D01*
X118007138Y-99800305D01*
X118005861Y-99798599D01*
X117982546Y-99767454D01*
X117982544Y-99767452D01*
X117982543Y-99767451D01*
X117877725Y-99688984D01*
X117835854Y-99633050D01*
X117830870Y-99563359D01*
X117864353Y-99502039D01*
X118299879Y-99066512D01*
X118361200Y-99033029D01*
X118423554Y-99035535D01*
X118508766Y-99061384D01*
X118508768Y-99061385D01*
X118525914Y-99063073D01*
X118700000Y-99080220D01*
X118891231Y-99061385D01*
X119075114Y-99005605D01*
X119244581Y-98915023D01*
X119393120Y-98793120D01*
X119504648Y-98657222D01*
X119562392Y-98617889D01*
X119632236Y-98616018D01*
X119692005Y-98652205D01*
X119722721Y-98714961D01*
X119724500Y-98735887D01*
X119724500Y-98819855D01*
X119724502Y-98819882D01*
X119727413Y-98844987D01*
X119727415Y-98844991D01*
X119772793Y-98947764D01*
X119772794Y-98947765D01*
X119852235Y-99027206D01*
X119955009Y-99072585D01*
X119980135Y-99075500D01*
X121419864Y-99075499D01*
X121419879Y-99075497D01*
X121419882Y-99075497D01*
X121444987Y-99072586D01*
X121444988Y-99072585D01*
X121444991Y-99072585D01*
X121547765Y-99027206D01*
X121627206Y-98947765D01*
X121672585Y-98844991D01*
X121675500Y-98819865D01*
X121675499Y-97624499D01*
X121695184Y-97557461D01*
X121747987Y-97511706D01*
X121799499Y-97500500D01*
X132983800Y-97500500D01*
X133050839Y-97520185D01*
G37*
%TD.AperFunction*%
%TA.AperFunction,Conductor*%
G36*
X117774489Y-97520185D02*
G01*
X117820244Y-97572989D01*
X117830188Y-97642147D01*
X117816808Y-97682953D01*
X117794396Y-97724881D01*
X117738614Y-97908770D01*
X117719780Y-98100000D01*
X117738614Y-98291229D01*
X117764464Y-98376445D01*
X117765087Y-98446312D01*
X117733484Y-98500121D01*
X117104522Y-99129084D01*
X117104520Y-99129087D01*
X117051793Y-99220412D01*
X117031229Y-99297159D01*
X117031229Y-99297160D01*
X117024500Y-99322274D01*
X117024500Y-99587819D01*
X117004815Y-99654858D01*
X116974812Y-99687085D01*
X116867452Y-99767455D01*
X116781206Y-99882664D01*
X116781202Y-99882671D01*
X116730910Y-100017513D01*
X116730909Y-100017517D01*
X116724500Y-100077127D01*
X116724500Y-100077134D01*
X116724500Y-100077135D01*
X116724500Y-100722870D01*
X116724501Y-100722876D01*
X116730908Y-100782483D01*
X116781202Y-100917328D01*
X116781206Y-100917335D01*
X116867452Y-101032544D01*
X116867455Y-101032547D01*
X116982664Y-101118793D01*
X116982671Y-101118797D01*
X117020063Y-101132743D01*
X117117517Y-101169091D01*
X117177127Y-101175500D01*
X117672872Y-101175499D01*
X117732483Y-101169091D01*
X117867331Y-101118796D01*
X117982546Y-101032546D01*
X117982548Y-101032542D01*
X117987819Y-101027273D01*
X118049142Y-100993788D01*
X118118834Y-100998772D01*
X118174767Y-101040644D01*
X118199184Y-101106108D01*
X118199500Y-101114954D01*
X118199500Y-101266745D01*
X118179815Y-101333784D01*
X118174304Y-101341670D01*
X118137636Y-101390023D01*
X118084640Y-101524411D01*
X118079811Y-101564630D01*
X118074500Y-101608856D01*
X118074500Y-102191144D01*
X118079825Y-102235494D01*
X118084640Y-102275588D01*
X118137636Y-102409976D01*
X118224921Y-102525078D01*
X118340023Y-102612363D01*
X118340024Y-102612363D01*
X118340025Y-102612364D01*
X118474410Y-102665359D01*
X118558856Y-102675500D01*
X118841324Y-102675500D01*
X118908363Y-102695185D01*
X118929005Y-102711819D01*
X119167327Y-102950141D01*
X119200812Y-103011464D01*
X119195828Y-103081156D01*
X119193081Y-103087907D01*
X119152415Y-103180006D01*
X119152415Y-103180008D01*
X119149500Y-103205131D01*
X119149500Y-103292324D01*
X119129815Y-103359363D01*
X119077011Y-103405118D01*
X119007853Y-103415062D01*
X118944297Y-103386037D01*
X118937819Y-103380005D01*
X118707316Y-103149502D01*
X118707314Y-103149500D01*
X118617395Y-103097585D01*
X118593187Y-103083608D01*
X118529539Y-103066554D01*
X118465892Y-103049500D01*
X118465891Y-103049500D01*
X118425833Y-103049500D01*
X118358794Y-103029815D01*
X118338152Y-103013181D01*
X118322765Y-102997794D01*
X118219992Y-102952415D01*
X118194868Y-102949500D01*
X118194865Y-102949500D01*
X117779387Y-102949500D01*
X117712348Y-102929815D01*
X117691706Y-102913181D01*
X117663016Y-102884491D01*
X117663015Y-102884490D01*
X117537485Y-102812016D01*
X117513846Y-102805682D01*
X117513842Y-102805681D01*
X117513841Y-102805680D01*
X117411589Y-102778282D01*
X117397475Y-102774500D01*
X117397474Y-102774500D01*
X116624263Y-102774500D01*
X116557224Y-102754815D01*
X116531227Y-102730761D01*
X116531072Y-102730917D01*
X116527080Y-102726925D01*
X116525460Y-102725426D01*
X116525078Y-102724922D01*
X116524522Y-102724500D01*
X116409976Y-102637636D01*
X116275588Y-102584640D01*
X116231814Y-102579384D01*
X116191144Y-102574500D01*
X115608856Y-102574500D01*
X115570841Y-102579065D01*
X115524411Y-102584640D01*
X115390023Y-102637636D01*
X115328486Y-102684303D01*
X115263175Y-102709127D01*
X115253560Y-102709500D01*
X115209957Y-102709500D01*
X115142918Y-102689815D01*
X115097163Y-102637011D01*
X115090382Y-102617718D01*
X115089877Y-102616438D01*
X115089877Y-102616436D01*
X115034361Y-102475658D01*
X115034360Y-102475657D01*
X115034360Y-102475656D01*
X114942922Y-102355077D01*
X114822343Y-102263639D01*
X114681561Y-102208122D01*
X114634031Y-102202415D01*
X114593102Y-102197500D01*
X114593097Y-102197500D01*
X113724500Y-102197500D01*
X113657461Y-102177815D01*
X113611706Y-102125011D01*
X113600500Y-102073500D01*
X113600500Y-101906500D01*
X113620185Y-101839461D01*
X113672989Y-101793706D01*
X113724500Y-101782500D01*
X114593097Y-101782500D01*
X114593102Y-101782500D01*
X114681564Y-101771877D01*
X114822342Y-101716361D01*
X114942922Y-101624922D01*
X115034361Y-101504342D01*
X115089877Y-101363564D01*
X115100500Y-101275102D01*
X115100500Y-101201798D01*
X115120185Y-101134759D01*
X115162494Y-101094414D01*
X115169346Y-101090458D01*
X115237244Y-101073984D01*
X115303272Y-101096834D01*
X115305658Y-101098576D01*
X115332669Y-101118796D01*
X115332671Y-101118797D01*
X115370063Y-101132743D01*
X115467517Y-101169091D01*
X115527127Y-101175500D01*
X116022872Y-101175499D01*
X116082483Y-101169091D01*
X116217331Y-101118796D01*
X116332546Y-101032546D01*
X116418796Y-100917331D01*
X116469091Y-100782483D01*
X116475500Y-100722873D01*
X116475499Y-100077128D01*
X116469091Y-100017517D01*
X116464353Y-100004815D01*
X116418797Y-99882671D01*
X116418793Y-99882664D01*
X116332547Y-99767455D01*
X116332544Y-99767452D01*
X116217335Y-99681206D01*
X116217328Y-99681202D01*
X116082486Y-99630910D01*
X116082485Y-99630909D01*
X116082483Y-99630909D01*
X116022873Y-99624500D01*
X116022863Y-99624500D01*
X115527129Y-99624500D01*
X115527123Y-99624501D01*
X115467516Y-99630908D01*
X115332671Y-99681202D01*
X115332664Y-99681206D01*
X115217455Y-99767452D01*
X115161760Y-99841851D01*
X115105826Y-99883721D01*
X115036134Y-99888705D01*
X114974812Y-99855219D01*
X114963690Y-99842464D01*
X114942922Y-99815077D01*
X114822343Y-99723639D01*
X114714730Y-99681202D01*
X114681564Y-99668123D01*
X114681563Y-99668122D01*
X114681561Y-99668122D01*
X114635926Y-99662642D01*
X114593102Y-99657500D01*
X114593097Y-99657500D01*
X113724500Y-99657500D01*
X113657461Y-99637815D01*
X113611706Y-99585011D01*
X113600500Y-99533500D01*
X113600500Y-98375833D01*
X113620185Y-98308794D01*
X113636819Y-98288152D01*
X114388152Y-97536819D01*
X114449475Y-97503334D01*
X114475833Y-97500500D01*
X117707450Y-97500500D01*
X117774489Y-97520185D01*
G37*
%TD.AperFunction*%
%TA.AperFunction,Conductor*%
G36*
X125130007Y-101597584D02*
G01*
X125130009Y-101597585D01*
X125155135Y-101600500D01*
X125275500Y-101600499D01*
X125342539Y-101620183D01*
X125388294Y-101672987D01*
X125399500Y-101724498D01*
X125399500Y-101844857D01*
X125399502Y-101844880D01*
X125403489Y-101879257D01*
X125401726Y-101879461D01*
X125401726Y-101920540D01*
X125403490Y-101920745D01*
X125399500Y-101955131D01*
X125399500Y-102344856D01*
X125399502Y-102344882D01*
X125403489Y-102379258D01*
X125401726Y-102379462D01*
X125401726Y-102420540D01*
X125403490Y-102420745D01*
X125399500Y-102455131D01*
X125399500Y-102844856D01*
X125399502Y-102844882D01*
X125402413Y-102869987D01*
X125402415Y-102869991D01*
X125447793Y-102972764D01*
X125462848Y-102987819D01*
X125496333Y-103049142D01*
X125491349Y-103118834D01*
X125449477Y-103174767D01*
X125384013Y-103199184D01*
X125375168Y-103199500D01*
X125155143Y-103199500D01*
X125155117Y-103199502D01*
X125120742Y-103203489D01*
X125120537Y-103201727D01*
X125079459Y-103201725D01*
X125079255Y-103203490D01*
X125069991Y-103202415D01*
X125044865Y-103199500D01*
X124655143Y-103199500D01*
X124655117Y-103199502D01*
X124620742Y-103203489D01*
X124620537Y-103201727D01*
X124579459Y-103201725D01*
X124579255Y-103203490D01*
X124569991Y-103202415D01*
X124544865Y-103199500D01*
X124155143Y-103199500D01*
X124155117Y-103199502D01*
X124120742Y-103203489D01*
X124120537Y-103201727D01*
X124079459Y-103201725D01*
X124079255Y-103203490D01*
X124069991Y-103202415D01*
X124064044Y-103201725D01*
X124044868Y-103199500D01*
X124044865Y-103199500D01*
X123924499Y-103199500D01*
X123857460Y-103179815D01*
X123811705Y-103127011D01*
X123800499Y-103075500D01*
X123800499Y-102955143D01*
X123800499Y-102955136D01*
X123800338Y-102953748D01*
X123796511Y-102920742D01*
X123798280Y-102920536D01*
X123798282Y-102879460D01*
X123796510Y-102879255D01*
X123799904Y-102850000D01*
X123800500Y-102844865D01*
X123800499Y-102455136D01*
X123800497Y-102455117D01*
X123797586Y-102430012D01*
X123797585Y-102430010D01*
X123797585Y-102430009D01*
X123752206Y-102327235D01*
X123672765Y-102247794D01*
X123664640Y-102239669D01*
X123667058Y-102237250D01*
X123635165Y-102198190D01*
X123627249Y-102128770D01*
X123658121Y-102066090D01*
X123664699Y-102060390D01*
X123664640Y-102060331D01*
X123705191Y-102019780D01*
X123752206Y-101972765D01*
X123797585Y-101869991D01*
X123800500Y-101844865D01*
X123800500Y-101724498D01*
X123820185Y-101657460D01*
X123872989Y-101611705D01*
X123924500Y-101600499D01*
X124044856Y-101600499D01*
X124044864Y-101600499D01*
X124044879Y-101600497D01*
X124044882Y-101600497D01*
X124079258Y-101596511D01*
X124079463Y-101598281D01*
X124120540Y-101598281D01*
X124120745Y-101596510D01*
X124130007Y-101597584D01*
X124130009Y-101597585D01*
X124155135Y-101600500D01*
X124544864Y-101600499D01*
X124544879Y-101600497D01*
X124544882Y-101600497D01*
X124579258Y-101596511D01*
X124579463Y-101598281D01*
X124620540Y-101598281D01*
X124620745Y-101596510D01*
X124630007Y-101597584D01*
X124630009Y-101597585D01*
X124655135Y-101600500D01*
X125044864Y-101600499D01*
X125044879Y-101600497D01*
X125044882Y-101600497D01*
X125079258Y-101596511D01*
X125079463Y-101598281D01*
X125120540Y-101598281D01*
X125120745Y-101596510D01*
X125130007Y-101597584D01*
G37*
%TD.AperFunction*%
%TA.AperFunction,Conductor*%
G36*
X136142540Y-99220185D02*
G01*
X136188295Y-99272989D01*
X136199501Y-99324500D01*
X136199501Y-99394856D01*
X136199502Y-99394882D01*
X136202413Y-99419987D01*
X136202415Y-99419991D01*
X136247793Y-99522764D01*
X136247794Y-99522765D01*
X136327235Y-99602206D01*
X136430009Y-99647585D01*
X136455135Y-99650500D01*
X137144864Y-99650499D01*
X137144879Y-99650497D01*
X137144882Y-99650497D01*
X137169987Y-99647586D01*
X137169988Y-99647585D01*
X137169991Y-99647585D01*
X137272765Y-99602206D01*
X137352206Y-99522765D01*
X137390198Y-99436722D01*
X137435284Y-99383345D01*
X137502070Y-99362818D01*
X137569352Y-99381656D01*
X137591313Y-99399127D01*
X137830005Y-99637819D01*
X137863490Y-99699142D01*
X137858506Y-99768834D01*
X137816634Y-99824767D01*
X137751170Y-99849184D01*
X137742324Y-99849500D01*
X137405143Y-99849500D01*
X137405117Y-99849502D01*
X137380012Y-99852413D01*
X137380008Y-99852415D01*
X137277235Y-99897793D01*
X137197794Y-99977234D01*
X137152415Y-100080006D01*
X137152415Y-100080008D01*
X137149500Y-100105131D01*
X137149500Y-100752510D01*
X137148439Y-100768695D01*
X137144318Y-100799998D01*
X137144318Y-100800001D01*
X137148439Y-100831304D01*
X137149500Y-100847489D01*
X137149500Y-101494856D01*
X137149502Y-101494882D01*
X137152413Y-101519987D01*
X137152414Y-101519989D01*
X137154810Y-101525415D01*
X137163881Y-101594693D01*
X137134057Y-101657878D01*
X137074807Y-101694908D01*
X137041375Y-101699500D01*
X136558624Y-101699500D01*
X136491585Y-101679815D01*
X136445830Y-101627011D01*
X136435886Y-101557853D01*
X136445190Y-101525414D01*
X136447585Y-101519991D01*
X136450500Y-101494865D01*
X136450499Y-100105136D01*
X136448640Y-100089106D01*
X136447586Y-100080012D01*
X136447585Y-100080010D01*
X136447585Y-100080009D01*
X136402206Y-99977235D01*
X136322765Y-99897794D01*
X136305165Y-99890023D01*
X136219992Y-99852415D01*
X136194865Y-99849500D01*
X135505143Y-99849500D01*
X135505117Y-99849502D01*
X135480012Y-99852413D01*
X135480008Y-99852415D01*
X135377235Y-99897793D01*
X135297794Y-99977234D01*
X135252415Y-100080006D01*
X135252415Y-100080008D01*
X135249500Y-100105131D01*
X135249500Y-101132743D01*
X135229815Y-101199782D01*
X135213184Y-101220422D01*
X135195428Y-101238179D01*
X135134106Y-101271665D01*
X135107744Y-101274500D01*
X133074500Y-101274500D01*
X133007461Y-101254815D01*
X132961706Y-101202011D01*
X132950500Y-101150500D01*
X132950500Y-99995730D01*
X132947646Y-99965301D01*
X132946845Y-99963011D01*
X132946753Y-99961210D01*
X132946036Y-99957927D01*
X132946579Y-99957808D01*
X132943284Y-99893232D01*
X132978013Y-99832605D01*
X133040007Y-99800378D01*
X133075464Y-99798599D01*
X133095734Y-99800500D01*
X133504270Y-99800500D01*
X133534699Y-99797646D01*
X133534701Y-99797646D01*
X133620980Y-99767455D01*
X133662882Y-99752793D01*
X133772150Y-99672150D01*
X133852793Y-99562882D01*
X133880926Y-99482483D01*
X133897646Y-99434701D01*
X133897646Y-99434699D01*
X133900500Y-99404269D01*
X133900500Y-99324500D01*
X133920185Y-99257461D01*
X133972989Y-99211706D01*
X134024500Y-99200500D01*
X136075501Y-99200500D01*
X136142540Y-99220185D01*
G37*
%TD.AperFunction*%
%TD*%
M02*
